<svg width="86" height="24" viewBox="0 0 86 24" fill="none" xmlns="http://www.w3.org/2000/svg">
<path d="M16.27 10.713C17.8697 9.42599 18.7558 7.36919 18.4711 5.22419C18.0742 2.20915 15.428 0 12.3889 0H1.68393C0.753758 0 0 0.753758 0 1.68393V21.8911C0 22.8212 0.753758 23.575 1.68393 23.575H13.3552C17.0077 23.575 20.0869 20.7123 20.2071 17.0638C20.2994 14.2533 18.6555 11.8116 16.274 10.717L16.27 10.713ZM3.36786 3.58035C3.36786 3.46408 3.46408 3.36786 3.58035 3.36786H12.433C13.7401 3.36786 14.9028 4.286 15.1193 5.573C15.3237 6.79184 14.6742 7.96258 13.5797 8.44771L3.36786 12.9863V3.58035ZM13.3872 20.2071H3.57634C3.46007 20.2071 3.36385 20.1109 3.36385 19.9946V16.8072C3.36385 16.723 3.41196 16.6468 3.48814 16.6148L10.5606 13.4714H13.4674C15.3679 13.4714 16.9034 15.0551 16.8313 16.9676C16.7631 18.7918 15.2075 20.2071 13.3832 20.2071H13.3872Z" fill="white"/>
<path d="M39.9091 16.0856L36.0721 17.7896C36.004 17.8216 35.9438 17.8697 35.8997 17.9339C34.7571 19.5617 32.8646 20.6282 30.7277 20.6282C28.9876 20.6282 27.4119 19.9225 26.2653 18.7799C26.161 18.6756 26.1931 18.4952 26.3254 18.4351L37.0063 13.688L39.869 12.417C40.0574 12.3328 40.1577 12.1243 40.1055 11.9239C39.011 7.63386 35.0497 4.48251 30.3949 4.63887C25.3872 4.80727 21.2896 8.84869 21.0531 13.8524C20.7925 19.4013 25.2308 24 30.7237 24C35.3705 24 39.2636 20.7044 40.1937 16.3301C40.2298 16.1618 40.0614 16.0214 39.9011 16.0896L39.9091 16.0856ZM24.4169 14.3134C24.4169 10.8333 27.2516 7.99871 30.7317 7.99871C32.7043 7.99871 34.4644 8.90483 35.6231 10.3281C35.7113 10.4364 35.6752 10.6008 35.5469 10.6569L24.5372 15.5483C24.457 15.1474 24.4169 14.7384 24.4169 14.3134Z" fill="white"/>
<path d="M49.4193 4.63086C45.6144 4.68298 42.4671 7.50156 41.8978 11.1621C41.8737 11.3265 42.0381 11.4588 42.1904 11.3906L46.0354 9.68264C46.0956 9.65859 46.1437 9.6185 46.1838 9.56637C46.9856 8.61215 48.1844 8.00273 49.5236 8.00273C51.1153 8.00273 52.5145 8.86073 53.2723 10.1397L48.2446 12.3729V12.3809L43.9706 14.2814C42.1343 15.1955 41.0277 17.1761 41.2843 19.273C41.589 21.7508 43.7581 23.5791 46.2559 23.5791H55.5616C56.4918 23.5791 57.2456 22.8253 57.2456 21.8951V12.4892C57.2456 8.15909 53.7414 4.57473 49.4113 4.63487L49.4193 4.63086ZM53.8857 19.9987C53.8857 20.115 53.7895 20.2112 53.6732 20.2112H46.2078C45.4942 20.2112 44.8406 19.7421 44.6682 19.0485C44.4838 18.3028 44.8687 17.565 45.5342 17.2683L53.585 13.688C53.7254 13.6278 53.8817 13.7281 53.8817 13.8804V19.9987H53.8857Z" fill="white"/>
<path d="M78.6274 4.63872C77.7213 4.67881 76.8353 4.90735 76.0093 5.27621L72.2967 6.92405C70.8733 5.35238 68.7404 4.43023 66.4109 4.67079C65.6612 4.74697 64.9315 4.95947 64.2419 5.26819L59.4387 7.40116C59.134 7.53748 58.9375 7.83818 58.9375 8.17096V23.3664C58.9375 23.4827 59.0337 23.5789 59.15 23.5789H62.0969C62.2131 23.5789 62.3094 23.4827 62.3094 23.3664V9.9471C62.3094 9.86291 62.3575 9.78673 62.4337 9.75465L65.6652 8.31931C65.9378 8.19902 66.2225 8.1028 66.5152 8.05469C68.7684 7.66578 70.729 9.40183 70.729 11.5829V23.3664C70.729 23.4827 70.8252 23.5789 70.9415 23.5789H73.8884C74.0046 23.5789 74.1009 23.4827 74.1009 23.3664V9.9471C74.1009 9.86291 74.149 9.78673 74.2252 9.75465L77.4567 8.31931C77.7293 8.19902 78.014 8.1028 78.3067 8.05469C80.5599 7.66578 82.5205 9.40183 82.5205 11.5829V23.3664C82.5205 23.4827 82.6167 23.5789 82.733 23.5789H85.6799C85.7962 23.5789 85.8924 23.4827 85.8924 23.3664V11.5829C85.8924 7.64974 82.6087 4.47033 78.6395 4.63872H78.6274Z" fill="white"/>
</svg>
