<svg width="168" height="61" viewBox="0 0 168 61" fill="none" xmlns="http://www.w3.org/2000/svg">
<path d="M48.0918 20.7372H50.0409C51.2279 20.557 52.4401 20.7155 53.5458 21.1952C54.9331 22.0552 55.9392 23.4396 56.3498 25.0531C56.6404 25.8987 56.6404 25.8987 57.3414 25.5992H57.8885V18.9052H39.5433V20.0854H40.2955C40.6224 20.0831 40.9457 20.1563 41.2416 20.2995C41.5374 20.4428 41.7984 20.6526 42.0052 20.9134C42.7062 22.076 42.8259 23.3796 42.8259 30.1617C42.8259 37.3666 42.672 39.1282 42.0052 40.0266C41.8406 40.2576 41.6275 40.4472 41.3818 40.5814C41.1361 40.7157 40.8641 40.791 40.5862 40.8017C39.5433 40.9955 39.5433 40.9779 39.5433 41.4535C39.4856 41.6125 39.4856 41.7877 39.5433 41.9467H51.118C51.1946 41.7911 51.2345 41.6191 51.2345 41.4447C51.2345 41.2702 51.1946 41.0982 51.118 40.9426C50.8377 40.8623 50.552 40.8034 50.2632 40.7665C49.9508 40.7282 49.642 40.6634 49.3399 40.5727C48.9074 40.2473 48.5648 39.8113 48.3459 39.3077C48.127 38.8042 48.0394 38.2504 48.0918 37.7013C47.9209 36.5387 47.8354 34.4071 47.8354 32.6455V31.2539H48.5193C49.3713 31.227 50.2229 31.3219 51.0496 31.5357C51.4457 31.7879 51.7829 32.1271 52.0371 32.5291C52.2912 32.931 52.4561 33.3858 52.52 33.861L52.6739 34.4071H53.7168V26.6033H52.7594L52.6055 27.3608C52.5407 27.8468 52.3663 28.3103 52.096 28.7141C51.8258 29.118 51.4674 29.4509 51.0496 29.6861C50.645 29.8101 50.2188 29.8402 49.8015 29.7742H47.8354V27.8716C47.8354 25.8987 47.938 21.7413 48.0063 21.0895L48.0918 20.7372ZM128.107 34.7066C127.298 33.3664 126.038 32.3814 124.567 31.9409C123.44 31.5779 122.398 30.978 121.507 30.1793C121.307 29.9795 121.157 29.7322 121.07 29.4589C120.984 29.1856 120.963 28.8947 121.011 28.6115C121.013 28.0561 121.228 27.5239 121.61 27.1318C121.868 26.8525 122.196 26.6509 122.557 26.5485C122.919 26.4461 123.3 26.4468 123.661 26.5505C124.409 26.7699 125.085 27.1936 125.617 27.7767C126.15 28.3597 126.52 29.0803 126.687 29.8622C126.961 30.655 126.995 30.655 127.491 30.4436L127.799 30.3203V25.9339L127.577 25.8282C125.893 25.2191 124.108 24.9674 122.328 25.0883C120.795 25.1284 119.331 25.7566 118.224 26.8499C117.722 27.3342 117.329 27.9256 117.072 28.5829C116.815 29.2402 116.701 29.9474 116.737 30.655C116.747 31.7368 117.163 32.7725 117.9 33.544C118.713 34.3684 119.711 34.9734 120.806 35.3055C123.456 36.3801 124.225 37.0671 124.225 38.3179C124.237 38.8453 124.074 39.361 123.763 39.7804C123.452 40.1997 123.013 40.4978 122.516 40.6255C121.919 40.7607 121.3 40.7607 120.703 40.6255C119.922 40.313 119.224 39.8126 118.668 39.1661C118.112 38.5196 117.714 37.7456 117.506 36.9086L117.284 36.3449H116.976C116.829 36.3561 116.685 36.3918 116.549 36.4506H116.378V41.4535H116.669C117.824 41.8494 119.015 42.121 120.225 42.2638H121.934C122.676 42.3199 123.421 42.2484 124.14 42.0524C125.052 41.8789 125.905 41.4625 126.613 40.8444C127.321 40.2263 127.859 39.4282 128.175 38.5293C128.379 38.0272 128.484 37.4881 128.483 36.9438C128.55 36.177 128.42 35.4054 128.107 34.7066ZM112.001 25.5992C110.976 25.156 109.873 24.941 108.762 24.9683C107.651 24.9957 106.558 25.2647 105.555 25.7577C104.613 26.2328 103.777 26.9063 103.103 27.7346C102.429 28.563 101.93 29.5278 101.64 30.5669C101.27 31.7004 101.114 32.8961 101.179 34.0901C101.166 34.7397 101.218 35.3889 101.332 36.0278C101.608 37.5988 102.345 39.0451 103.442 40.1724C104.539 41.2998 105.945 42.0542 107.47 42.3343C108.464 42.4632 109.469 42.4632 110.462 42.3343C111.493 42.1471 112.48 41.7584 113.369 41.1893C114.104 40.7645 114.727 40.1594 115.181 39.4277C115.152 39.3128 115.101 39.2053 115.03 39.1115C114.96 39.0176 114.871 38.9394 114.771 38.8816C114.576 38.9544 114.391 39.0552 114.224 39.181C113.373 39.7585 112.369 40.0479 111.351 40.009C110.676 40.056 109.999 39.9477 109.369 39.6917C108.739 39.4358 108.172 39.0387 107.71 38.5293C107.352 38.1868 107.057 37.7811 106.838 37.3314C106.306 36.2362 106.02 35.0323 106 33.8082V33.1212H115.472V32.7689C115.493 32.4169 115.493 32.0639 115.472 31.7119C115.468 30.4681 115.145 29.2473 114.536 28.1737C113.926 27.1 113.052 26.2118 112.001 25.5992ZM107.231 31.6943H106.034V30.655C106.427 27.995 107.402 26.4095 108.599 26.4095C109.795 26.4095 110.308 27.9773 110.531 30.8487V31.6591H109.505L107.231 31.6943ZM82.6452 25.0179C82.0544 24.9943 81.4671 25.1213 80.9355 25.3878C79.7799 25.966 78.8466 26.9277 78.2854 28.1183L78.0632 28.5411V25.0179H77.9777C77.7725 25.0179 71.4466 26.3215 71.2414 26.4095C71.0362 26.4976 71.1046 26.5152 71.1046 26.8323C71.1046 27.1494 71.1046 27.2022 71.2414 27.2199L71.9082 27.3608C72.0949 27.3655 72.2782 27.414 72.4441 27.5025C72.61 27.591 72.7541 27.7172 72.8656 27.8716C73.293 28.453 73.3785 29.4747 73.3785 33.8258C73.463 35.7846 73.3829 37.7473 73.1392 39.6919C73.0818 39.9851 72.9375 40.2528 72.7262 40.4579C72.5149 40.663 72.247 40.7954 71.9595 40.8369L71.3782 40.9602H71.1559V41.4535C71.0939 41.6178 71.0939 41.8001 71.1559 41.9643H80.7132V41.4535C80.7464 41.2849 80.7464 41.1112 80.7132 40.9426C80.1378 40.9195 79.5655 40.8429 79.0035 40.7136C78.6974 40.5487 78.447 40.2921 78.2853 39.9776C78.1235 39.6632 78.058 39.3056 78.0973 38.952C77.9606 37.9303 77.8922 34.9356 77.9264 32.6455C77.9606 30.3555 77.9264 30.2146 78.1144 30.056C78.6866 29.6041 79.3945 29.3734 80.1148 29.4042C80.7938 29.4195 81.4604 29.5942 82.0639 29.9151C82.2731 30.0348 82.4975 30.1237 82.7307 30.1793C82.7307 30.1793 84.4404 25.9163 84.4404 25.7225C84.2216 25.4606 83.9429 25.2589 83.6294 25.1359C83.316 25.0129 82.9777 24.9723 82.6452 25.0179ZM71.1217 32.4165C71.062 31.1577 70.7113 29.9318 70.0986 28.841C69.486 27.7501 68.6292 26.8259 67.5997 26.1453C66.3762 25.4652 65.015 25.0903 63.6254 25.0505C62.2358 25.0107 60.8564 25.3072 59.5982 25.9163C57.8192 26.8828 56.4761 28.5259 55.8539 30.4964C55.2114 32.7026 55.2114 35.0547 55.8539 37.2609C56.1908 38.4667 56.8204 39.564 57.6833 40.4494C58.7581 41.5299 60.1438 42.2221 61.6328 42.4224C62.5886 42.5047 63.5493 42.5047 64.5051 42.4224C64.8568 42.3672 65.2051 42.2908 65.548 42.1934C66.9397 41.7923 68.1917 40.9911 69.1575 39.8836C70.1234 38.7761 70.7632 37.4082 71.002 35.9397C71.1727 34.7739 71.2129 33.5918 71.1217 32.4165ZM64.0093 41.2245C62.2996 41.753 61.0173 40.0442 60.5899 36.4506C60.4329 34.5691 60.4329 32.6773 60.5899 30.7959C60.9318 27.9069 61.8038 26.4448 63.1544 26.4448C63.4269 26.4274 63.6995 26.4775 63.9494 26.5909C64.1992 26.7042 64.4191 26.8776 64.5906 27.0965C65.7361 28.2768 66.3003 30.6197 66.3003 34.1429C66.4426 36.1368 66.1384 38.1378 65.4113 39.9914C65.0902 40.532 64.5934 40.9377 64.0093 41.1364V41.2245ZM94.7842 25.3702C94.3017 25.3062 93.8133 25.3062 93.3309 25.3702C92.4048 25.3694 91.4894 25.5736 90.6467 25.9691L90.1166 26.1981V22.3755C90.2093 21.0854 90.2093 19.7901 90.1166 18.5C89.9115 18.5 83.3804 19.786 83.2778 19.8388C83.2274 19.9689 83.2274 20.1139 83.2778 20.244C83.2778 20.6139 83.2778 20.5963 84.0472 20.7724C84.2632 20.8224 84.4707 20.9055 84.6627 21.0191C84.9964 21.3424 85.2185 21.7692 85.2952 22.2346C85.4899 23.5752 85.5529 24.9326 85.4833 26.2862V41.753L85.9449 41.8587C86.6288 42.0172 88.5608 42.3519 89.1934 42.4224C90.4566 42.5259 91.7258 42.5259 92.989 42.4224C94.3911 42.2748 95.7275 41.7358 96.8543 40.8636C97.9811 39.9913 98.8555 38.8188 99.3833 37.4723C99.698 36.6081 99.916 35.7098 100.033 34.7947C100.135 33.5552 100.095 32.3076 99.9133 31.0777C99.7299 29.6991 99.1394 28.4121 98.2218 27.391C97.3043 26.37 96.1041 25.6645 94.7842 25.3702ZM90.3047 40.925C90.3047 40.696 90.1337 32.9803 90.1679 29.8975V27.4841L90.6638 27.3608C90.9983 27.3114 91.338 27.3114 91.6725 27.3608C92.0425 27.322 92.4146 27.4086 92.7325 27.6074C93.371 28.0614 93.9012 28.6588 94.2832 29.3545C94.6653 30.0502 94.8892 30.8261 94.938 31.6238C95.0626 32.9066 95.0626 34.1989 94.938 35.4817C94.8357 37.3461 94.1385 39.1234 92.9548 40.5375C92.6188 40.8663 92.1969 41.0867 91.7409 41.1716C91.3958 41.2335 91.043 41.2335 90.698 41.1716C90.3731 41.1716 90.3731 41.0659 90.3731 40.925H90.3047Z" fill="black"/>
</svg>
