<svg width="90" height="25" viewBox="0 0 90 25" fill="none" xmlns="http://www.w3.org/2000/svg">
<path d="M9.09183 2.73722H11.0409C12.2279 2.55705 13.4401 2.71545 14.5458 3.19523C15.9331 4.05516 16.9392 5.43956 17.3498 7.05311C17.6404 7.89867 17.6404 7.89867 18.3414 7.5992H18.8885V0.905165H0.543256V2.08543H1.29553C1.62244 2.0831 1.9457 2.15626 2.24156 2.29953C2.53743 2.44281 2.79838 2.65256 3.00525 2.91338C3.70623 4.07602 3.82591 5.3796 3.82591 12.1617C3.82591 19.3666 3.67204 21.1282 3.00525 22.0266C2.84063 22.2576 2.62751 22.4472 2.38179 22.5814C2.13607 22.7157 1.8641 22.791 1.58618 22.8017C0.543256 22.9955 0.543256 22.9779 0.543256 23.4535C0.485581 23.6125 0.485581 23.7877 0.543256 23.9467H12.118C12.1946 23.7911 12.2345 23.6191 12.2345 23.4447C12.2345 23.2702 12.1946 23.0982 12.118 22.9426C11.8377 22.8623 11.552 22.8034 11.2632 22.7665C10.9508 22.7282 10.642 22.6634 10.3399 22.5727C9.9074 22.2473 9.56475 21.8113 9.34586 21.3077C9.12697 20.8042 9.03941 20.2504 9.09183 19.7013C8.92086 18.5387 8.83538 16.4071 8.83538 14.6455V13.2539H9.51926C10.3713 13.227 11.2229 13.3219 12.0496 13.5357C12.4457 13.7879 12.7829 14.1271 13.0371 14.5291C13.2912 14.931 13.4561 15.3858 13.52 15.861L13.6739 16.4071H14.7168V8.6033H13.7594L13.6055 9.36079C13.5407 9.84675 13.3663 10.3103 13.096 10.7141C12.8258 11.118 12.4674 11.4509 12.0496 11.6861C11.645 11.8101 11.2188 11.8402 10.8015 11.7742H8.83538V9.87165C8.83538 7.89867 8.93796 3.74132 9.00635 3.08953L9.09183 2.73722ZM89.1065 16.7066C88.2984 15.3664 87.0379 14.3814 85.5674 13.9409C84.4401 13.5779 83.3981 12.978 82.507 12.1793C82.3065 11.9795 82.1565 11.7322 82.0701 11.4589C81.9837 11.1856 81.9634 10.8947 82.0112 10.6115C82.0125 10.0561 82.2278 9.52386 82.6096 9.13178C82.8684 8.8525 83.196 8.65089 83.5573 8.5485C83.9187 8.44612 84.3003 8.44679 84.6613 8.55046C85.4087 8.76993 86.0846 9.19363 86.6173 9.77665C87.1501 10.3597 87.5199 11.0803 87.6875 11.8622C87.961 12.655 87.9952 12.655 88.491 12.4436L88.7988 12.3203V7.9339L88.5765 7.82821C86.8933 7.2191 85.1078 6.96742 83.3277 7.08834C81.7947 7.12836 80.3314 7.75656 79.2244 8.84993C78.7223 9.33417 78.329 9.92563 78.0721 10.5829C77.8152 11.2402 77.7008 11.9474 77.7369 12.655C77.7465 13.7368 78.1633 14.7725 78.8995 15.544C79.7131 16.3684 80.7114 16.9734 81.806 17.3055C84.4561 18.3801 85.2255 19.0671 85.2255 20.3179C85.2368 20.8453 85.0738 21.361 84.7631 21.7804C84.4524 22.1997 84.0126 22.4978 83.5158 22.6255C82.9188 22.7607 82.3004 22.7607 81.7035 22.6255C80.9218 22.313 80.224 21.8126 79.6679 21.1661C79.1118 20.5196 78.7135 19.7456 78.5063 18.9086L78.284 18.3449H77.9763C77.8292 18.3561 77.6849 18.3918 77.5489 18.4506H77.3779V23.4535H77.6685C78.8236 23.8494 80.0154 24.121 81.2247 24.2638H82.9345C83.6759 24.3199 84.4213 24.2484 85.14 24.0524C86.0524 23.8789 86.9049 23.4625 87.6128 22.8444C88.3206 22.2263 88.8592 21.4282 89.1749 20.5293C89.3789 20.0272 89.4836 19.4881 89.4827 18.9438C89.55 18.177 89.4203 17.4054 89.1065 16.7066ZM73.001 7.5992C71.9765 7.156 70.8726 6.94101 69.7617 6.96833C68.6509 6.99566 67.5582 7.26468 66.5554 7.75774C65.6127 8.23281 64.7773 8.90626 64.1029 9.73461C63.4285 10.563 62.9302 11.5278 62.6401 12.5669C62.2703 13.7004 62.1136 14.8961 62.1785 16.0901C62.1663 16.7397 62.2178 17.3889 62.3324 18.0278C62.6085 19.5988 63.3446 21.0451 64.4418 22.1724C65.539 23.2998 66.9448 24.0542 68.4703 24.3343C69.4637 24.4632 70.4689 24.4632 71.4623 24.3343C72.4931 24.1471 73.4797 23.7584 74.3688 23.1893C75.1042 22.7645 75.7267 22.1594 76.1811 21.4277C76.1519 21.3128 76.1005 21.2053 76.03 21.1115C75.9595 21.0176 75.8713 20.9394 75.7707 20.8816C75.5756 20.9544 75.3914 21.0552 75.2236 21.181C74.3732 21.7585 73.3691 22.0479 72.3513 22.009C71.6758 22.056 70.9986 21.9477 70.3687 21.6917C69.7389 21.4358 69.1721 21.0387 68.7096 20.5293C68.3518 20.1868 68.0565 19.7811 67.8377 19.3314C67.3064 18.2362 67.0201 17.0323 66.9999 15.8082V15.1212H76.4717V14.7689C76.4926 14.4169 76.4926 14.0639 76.4717 13.7119C76.4683 12.4681 76.1454 11.2473 75.5358 10.1737C74.9262 9.10003 74.0517 8.21179 73.001 7.5992ZM68.2309 13.6943H67.0341V12.655C67.4273 9.99496 68.4019 8.40953 69.5987 8.40953C70.7955 8.40953 71.3084 9.97734 71.5307 12.8487V13.6591H70.5048L68.2309 13.6943ZM43.6452 7.01787C43.0544 6.99427 42.4671 7.12134 41.9355 7.38781C40.7799 7.96601 39.8466 8.92767 39.2854 10.1183L39.0632 10.5411V7.01787H38.9777C38.7725 7.01787 32.4466 8.32145 32.2414 8.40953C32.0362 8.49761 32.1046 8.51522 32.1046 8.83231C32.1046 9.1494 32.1046 9.20224 32.2414 9.21986L32.9082 9.36079C33.0949 9.36551 33.2782 9.41396 33.4441 9.50247C33.61 9.59098 33.7541 9.71723 33.8656 9.87165C34.293 10.453 34.3785 11.4747 34.3785 15.8258C34.463 17.7846 34.3829 19.7473 34.1392 21.6919C34.0818 21.9851 33.9375 22.2528 33.7262 22.4579C33.5149 22.663 33.247 22.7954 32.9595 22.8369L32.3782 22.9602H32.1559V23.4535C32.0939 23.6178 32.0939 23.8001 32.1559 23.9643H41.7132V23.4535C41.7464 23.2849 41.7464 23.1112 41.7132 22.9426C41.1378 22.9195 40.5655 22.8429 40.0035 22.7136C39.6974 22.5487 39.447 22.2921 39.2853 21.9776C39.1235 21.6632 39.058 21.3056 39.0973 20.952C38.9606 19.9303 38.8922 16.9356 38.9264 14.6455C38.9606 12.3555 38.9264 12.2146 39.1144 12.056C39.6866 11.6041 40.3945 11.3734 41.1148 11.4042C41.7938 11.4195 42.4604 11.5942 43.0639 11.9151C43.2731 12.0348 43.4975 12.1237 43.7307 12.1793C43.7307 12.1793 45.4404 7.91629 45.4404 7.72251C45.2216 7.46055 44.9429 7.25894 44.6294 7.1359C44.316 7.01287 43.9777 6.9723 43.6452 7.01787ZM32.1217 14.4165C32.062 13.1577 31.7113 11.9318 31.0986 10.841C30.486 9.7501 29.6292 8.82588 28.5997 8.14529C27.3762 7.46523 26.015 7.09025 24.6254 7.05048C23.2358 7.01071 21.8564 7.30725 20.5982 7.91628C18.8192 8.88283 17.4761 10.5259 16.8539 12.4964C16.2114 14.7026 16.2114 17.0547 16.8539 19.2609C17.1908 20.4667 17.8204 21.564 18.6833 22.4494C19.7581 23.5299 21.1438 24.2221 22.6328 24.4224C23.5886 24.5047 24.5493 24.5047 25.5051 24.4224C25.8568 24.3672 26.2051 24.2908 26.548 24.1934C27.9397 23.7923 29.1917 22.9911 30.1575 21.8836C31.1234 20.7761 31.7632 19.4082 32.002 17.9397C32.1727 16.7739 32.2129 15.5918 32.1217 14.4165ZM25.0093 23.2245C23.2996 23.753 22.0173 22.0442 21.5899 18.4506C21.4329 16.5691 21.4329 14.6773 21.5899 12.7959C21.9318 9.90688 22.8038 8.44476 24.1544 8.44476C24.4269 8.42736 24.6995 8.47745 24.9494 8.59085C25.1992 8.70425 25.4191 8.87765 25.5906 9.09655C26.7361 10.2768 27.3003 12.6197 27.3003 16.1429C27.4426 18.1368 27.1384 20.1378 26.4113 21.9914C26.0902 22.532 25.5934 22.9377 25.0093 23.1364V23.2245ZM55.7842 7.37019C55.3017 7.30623 54.8133 7.30623 54.3309 7.37019C53.4048 7.36938 52.4894 7.57364 51.6467 7.96913L51.1166 8.19814V4.37549C51.2093 3.08542 51.2093 1.79007 51.1166 0.5C50.9115 0.5 44.3804 1.78596 44.2778 1.83881C44.2274 1.96887 44.2274 2.11391 44.2778 2.24397C44.2778 2.61391 44.2778 2.59629 45.0472 2.77245C45.2632 2.82236 45.4707 2.9055 45.6627 3.01907C45.9964 3.34243 46.2185 3.76922 46.2952 4.23457C46.4899 5.57517 46.5529 6.93259 46.4833 8.28622V23.753L46.9449 23.8587C47.6288 24.0172 49.5608 24.3519 50.1934 24.4224C51.4566 24.5259 52.7258 24.5259 53.989 24.4224C55.3911 24.2748 56.7275 23.7358 57.8543 22.8636C58.9811 21.9913 59.8555 20.8188 60.3833 19.4723C60.698 18.6081 60.916 17.7098 61.033 16.7947C61.1348 15.5552 61.0946 14.3076 60.9133 13.0777C60.7299 11.6991 60.1394 10.4121 59.2218 9.39104C58.3043 8.37002 57.1041 7.66451 55.7842 7.37019ZM51.3047 22.925C51.3047 22.696 51.1337 14.9803 51.1679 11.8975V9.4841L51.6638 9.36079C51.9983 9.3114 52.338 9.3114 52.6725 9.36079C53.0425 9.32203 53.4146 9.40861 53.7325 9.60741C54.371 10.0614 54.9012 10.6588 55.2832 11.3545C55.6653 12.0502 55.8892 12.8261 55.938 13.6238C56.0626 14.9066 56.0626 16.1989 55.938 17.4817C55.8357 19.3461 55.1385 21.1234 53.9548 22.5375C53.6188 22.8663 53.1969 23.0867 52.7409 23.1716C52.3958 23.2335 52.043 23.2335 51.698 23.1716C51.3731 23.1716 51.3731 23.0659 51.3731 22.925H51.3047Z" fill="black"/>
</svg>
