<svg width="53" height="15" viewBox="0 0 53 15" fill="none" xmlns="http://www.w3.org/2000/svg">
<path d="M5.51995 1.80504H6.65873C7.35225 1.69994 8.0605 1.79235 8.70655 2.07222C9.51707 2.57384 10.105 3.38141 10.3448 4.32265C10.5146 4.81589 10.5146 4.81589 10.9242 4.6412H11.2438V0.736346H0.525273V1.42483H0.964805C1.15581 1.42347 1.34468 1.46615 1.51754 1.54973C1.69041 1.6333 1.84287 1.75566 1.96374 1.9078C2.3733 2.58601 2.44323 3.34643 2.44323 7.30267C2.44323 11.5055 2.35332 12.5331 1.96374 13.0572C1.86756 13.1919 1.74304 13.3026 1.59947 13.3808C1.45591 13.4591 1.297 13.5031 1.13462 13.5093C0.525273 13.6224 0.525273 13.6121 0.525273 13.8895C0.491576 13.9823 0.491576 14.0845 0.525273 14.1773H7.28806C7.33282 14.0865 7.35614 13.9862 7.35614 13.8844C7.35614 13.7826 7.33282 13.6823 7.28806 13.5915C7.12427 13.5447 6.95732 13.5103 6.7886 13.4888C6.60607 13.4664 6.42564 13.4286 6.24917 13.3757C5.99646 13.1859 5.79626 12.9316 5.66837 12.6378C5.54048 12.3441 5.48932 12.0211 5.51995 11.7008C5.42005 11.0226 5.37011 9.77916 5.37011 8.75157V7.93977H5.76968C6.26751 7.9241 6.76504 7.97943 7.24811 8.10419C7.47953 8.2513 7.67652 8.44915 7.82502 8.68363C7.97353 8.9181 8.06987 9.18341 8.10719 9.46061L8.19709 9.77916H8.80644V5.22693H8.24704L8.15714 5.66879C8.11931 5.95227 8.01736 6.22267 7.85949 6.45825C7.70161 6.69383 7.4922 6.88802 7.24811 7.02522C7.01171 7.09758 6.76266 7.11513 6.51888 7.07659H5.37011V5.96679C5.37011 4.81589 5.43004 2.39077 5.47 2.01056L5.51995 1.80504ZM52.2701 9.95385C51.7979 9.17207 51.0615 8.59747 50.2023 8.34053C49.5437 8.12875 48.9348 7.77886 48.4142 7.31294C48.2971 7.19638 48.2094 7.0521 48.1589 6.89268C48.1084 6.73327 48.0966 6.56357 48.1245 6.39838C48.1253 6.07437 48.251 5.76392 48.4742 5.53521C48.6254 5.37229 48.8168 5.25469 49.0279 5.19496C49.239 5.13524 49.4619 5.13563 49.6729 5.1961C50.1096 5.32413 50.5045 5.57128 50.8157 5.91138C51.127 6.25148 51.3431 6.67186 51.441 7.12797C51.6008 7.59039 51.6208 7.59039 51.9105 7.46708L52.0903 7.39515V4.83644L51.9604 4.77479C50.977 4.41948 49.9338 4.27266 48.8937 4.3432C47.998 4.36654 47.1431 4.73299 46.4963 5.37079C46.2029 5.65327 45.9731 5.99828 45.823 6.38169C45.6729 6.7651 45.6061 7.17762 45.6272 7.59039C45.6328 8.22146 45.8763 8.82565 46.3065 9.27564C46.7818 9.75656 47.3651 10.1095 48.0047 10.3032C49.553 10.9301 50.0025 11.3308 50.0025 12.0604C50.0092 12.3681 49.9139 12.6689 49.7324 12.9136C49.5508 13.1582 49.2938 13.332 49.0036 13.4066C48.6548 13.4854 48.2935 13.4854 47.9447 13.4066C47.488 13.2242 47.0803 12.9324 46.7554 12.5552C46.4305 12.1781 46.1978 11.7266 46.0767 11.2383L45.9468 10.9095H45.767C45.6811 10.9161 45.5968 10.9369 45.5173 10.9712H45.4174V13.8895H45.5872C46.2621 14.1205 46.9584 14.2789 47.665 14.3622H48.6639C49.0972 14.3949 49.5327 14.3533 49.9526 14.2389C50.4857 14.1377 50.9838 13.8948 51.3973 13.5342C51.8109 13.1737 52.1256 12.7081 52.3101 12.1837C52.4293 11.8908 52.4904 11.5764 52.4899 11.2589C52.5292 10.8116 52.4534 10.3615 52.2701 9.95385ZM42.8601 4.6412C42.2615 4.38267 41.6166 4.25726 40.9675 4.27319C40.3185 4.28913 39.6801 4.44606 39.0942 4.73368C38.5434 5.01081 38.0553 5.40365 37.6612 5.88686C37.2672 6.37006 36.9761 6.93289 36.8066 7.53901C36.5905 8.20021 36.499 8.89773 36.5369 9.5942C36.5297 9.97313 36.5598 10.3518 36.6268 10.7245C36.7881 11.641 37.2182 12.4846 37.8592 13.1423C38.5003 13.7999 39.3217 14.2399 40.213 14.4033C40.7934 14.4786 41.3807 14.4786 41.9611 14.4033C42.5634 14.2941 43.1398 14.0674 43.6593 13.7354C44.089 13.4876 44.4527 13.1347 44.7182 12.7078C44.7011 12.6408 44.6711 12.5781 44.6299 12.5233C44.5887 12.4686 44.5372 12.423 44.4784 12.3892C44.3644 12.4317 44.2568 12.4905 44.1588 12.5639C43.6619 12.9008 43.0752 13.0696 42.4805 13.0469C42.0859 13.0744 41.6902 13.0111 41.3222 12.8618C40.9542 12.7126 40.623 12.4809 40.3528 12.1837C40.1438 11.984 39.9712 11.7473 39.8434 11.485C39.5329 10.8461 39.3657 10.1439 39.3539 9.42978V9.02902H44.888V8.8235C44.9002 8.61818 44.9002 8.41227 44.888 8.20695C44.886 7.48137 44.6973 6.76926 44.3412 6.14297C43.985 5.51669 43.474 4.99855 42.8601 4.6412ZM40.0731 8.19667H39.3739V7.59039C39.6036 6.03873 40.173 5.11389 40.8723 5.11389C41.5715 5.11389 41.8712 6.02845 42.0011 7.70343V8.17612H41.4017L40.0731 8.19667ZM25.7084 4.30209C25.3633 4.28832 25.0201 4.36245 24.7095 4.51789C24.0343 4.85517 23.489 5.41614 23.1611 6.11066L23.0313 6.35728V4.30209H22.9813C22.8615 4.30209 19.1654 5.06251 19.0455 5.11389C18.9257 5.16527 18.9656 5.17555 18.9656 5.36051C18.9656 5.54548 18.9656 5.57631 19.0455 5.58659L19.4351 5.66879C19.5442 5.67155 19.6513 5.69981 19.7482 5.75144C19.8451 5.80307 19.9294 5.87671 19.9945 5.96679C20.2443 6.3059 20.2942 6.9019 20.2942 9.44006C20.3435 10.5827 20.2967 11.7276 20.1543 12.8619C20.1208 13.033 20.0365 13.1891 19.913 13.3087C19.7896 13.4284 19.6331 13.5057 19.4651 13.5299L19.1254 13.6018H18.9956V13.8895C18.9593 13.9854 18.9593 14.0917 18.9956 14.1875H24.5796V13.8895C24.599 13.7912 24.599 13.6899 24.5796 13.5915C24.2434 13.5781 23.9091 13.5333 23.5807 13.4579C23.4019 13.3617 23.2556 13.212 23.1611 13.0286C23.0666 12.8452 23.0283 12.6366 23.0513 12.4304C22.9713 11.8343 22.9314 10.0874 22.9514 8.75157C22.9713 7.4157 22.9514 7.33349 23.0612 7.24101C23.3955 6.97736 23.8092 6.8428 24.23 6.8608C24.6267 6.8697 25.0162 6.97162 25.3688 7.1588C25.491 7.22863 25.6222 7.28051 25.7584 7.31294C25.7584 7.31294 26.7573 4.82617 26.7573 4.71313C26.6295 4.56032 26.4666 4.44271 26.2835 4.37094C26.1003 4.29918 25.9027 4.27551 25.7084 4.30209ZM18.9756 8.61798C18.9407 7.88367 18.7358 7.16856 18.3778 6.53223C18.0199 5.89589 17.5193 5.35676 16.9178 4.95975C16.203 4.56305 15.4076 4.34431 14.5957 4.32111C13.7838 4.29791 12.9779 4.47089 12.2428 4.82617C11.2034 5.38999 10.4186 6.34842 10.0551 7.49791C9.67968 8.78488 9.67968 10.1569 10.0551 11.4439C10.2519 12.1472 10.6198 12.7874 11.124 13.3038C11.7519 13.9341 12.5616 14.3379 13.4315 14.4547C13.9899 14.5027 14.5513 14.5027 15.1097 14.4547C15.3152 14.4225 15.5187 14.3779 15.7191 14.3211C16.5322 14.0871 17.2637 13.6198 17.828 12.9738C18.3923 12.3277 18.7661 11.5298 18.9057 10.6732C19.0054 9.99312 19.0289 9.30354 18.9756 8.61798ZM14.82 13.7559C13.8211 14.0642 13.0719 13.0675 12.8222 10.9712C12.7305 9.87367 12.7305 8.7701 12.8222 7.6726C13.0219 5.98735 13.5314 5.13444 14.3206 5.13444C14.4798 5.12429 14.639 5.15351 14.785 5.21966C14.931 5.28581 15.0595 5.38696 15.1597 5.51465C15.829 6.20314 16.1586 7.56984 16.1586 9.62502C16.2417 10.7881 16.064 11.9554 15.6392 13.0366C15.4516 13.352 15.1613 13.5887 14.82 13.7046V13.7559ZM32.8009 4.50761C32.519 4.4703 32.2336 4.4703 31.9518 4.50761C31.4107 4.50714 30.8758 4.62629 30.3834 4.85699L30.0738 4.99058V2.7607C30.1279 2.00816 30.1279 1.25254 30.0738 0.5C29.9539 0.5 26.138 1.25014 26.078 1.28097C26.0486 1.35684 26.0486 1.44145 26.078 1.51732C26.078 1.73311 26.078 1.72284 26.5276 1.82559C26.6538 1.85471 26.775 1.90321 26.8872 1.96946C27.0822 2.15808 27.2119 2.40705 27.2568 2.6785C27.3705 3.46052 27.4073 4.25234 27.3667 5.04196V14.0642L27.6364 14.1259C28.0359 14.2184 29.1647 14.4136 29.5343 14.4547C30.2724 14.5151 31.0139 14.5151 31.752 14.4547C32.5712 14.3686 33.352 14.0542 34.0104 13.5454C34.6687 13.0366 35.1796 12.3526 35.488 11.5672C35.6719 11.0631 35.7992 10.539 35.8676 10.0052C35.9271 9.28218 35.9036 8.55443 35.7977 7.83701C35.6905 7.03284 35.3455 6.28203 34.8094 5.68644C34.2733 5.09085 33.5721 4.6793 32.8009 4.50761ZM30.1837 13.5813C30.1837 13.4477 30.0838 8.94681 30.1037 7.14853V5.74072L30.3934 5.66879C30.5889 5.63998 30.7873 5.63998 30.9828 5.66879C31.199 5.64618 31.4164 5.69669 31.6021 5.81266C31.9752 6.07751 32.285 6.42596 32.5082 6.83178C32.7314 7.2376 32.8622 7.69022 32.8908 8.15557C32.9635 8.90384 32.9635 9.65772 32.8908 10.406C32.831 11.4936 32.4236 12.5303 31.732 13.3552C31.5357 13.547 31.2892 13.6756 31.0228 13.7251C30.8212 13.7612 30.615 13.7612 30.4134 13.7251C30.2236 13.7251 30.2236 13.6635 30.2236 13.5813H30.1837Z" fill="black"/>
</svg>
