<svg width="32" height="32" viewBox="0 0 32 32" fill="none" xmlns="http://www.w3.org/2000/svg">
<path d="M19.4291 12.3566V17.4278C19.4291 17.5707 19.2863 17.6421 19.1434 17.6421H18.3577C18.2863 17.6421 18.2149 17.5707 18.1435 17.5707L15.8579 14.4279V17.4278C15.8579 17.5707 15.715 17.6421 15.6436 17.6421H14.7865C14.6436 17.6421 14.5722 17.5707 14.5722 17.4278V12.3566C14.5722 12.2137 14.6436 12.1423 14.7865 12.1423H15.6436C15.715 12.1423 15.7864 12.1423 15.7864 12.2137L18.1435 15.3565V12.3566C18.1435 12.2137 18.2149 12.1423 18.3577 12.1423H19.1434C19.2863 12.0709 19.4291 12.2137 19.4291 12.3566ZM13.5722 12.0709H12.7151C12.5723 12.0709 12.5009 12.2137 12.5009 12.3566V17.4278C12.5009 17.5707 12.5723 17.6421 12.7151 17.6421H13.5722C13.6437 17.6421 13.7865 17.5707 13.7865 17.4278V12.3566C13.7865 12.2137 13.6437 12.0709 13.5722 12.0709ZM11.5723 16.3564H9.35814V12.3566C9.35814 12.2137 9.28672 12.0709 9.14387 12.0709H8.28676C8.21534 12.0709 8.07249 12.2137 8.07249 12.3566V17.4278C8.07249 17.4992 8.14391 17.4992 8.14391 17.5707C8.21534 17.5707 8.21534 17.6421 8.28676 17.6421H11.5723C11.7152 17.6421 11.7866 17.4992 11.7866 17.4278V16.5707C11.7866 16.4993 11.7152 16.3564 11.5723 16.3564ZM23.7147 12.0709H20.4291C20.2862 12.0709 20.2148 12.2137 20.2148 12.3566V17.4278C20.2148 17.4992 20.2862 17.6421 20.4291 17.6421H23.7147C23.7861 17.6421 23.9289 17.5707 23.9289 17.4278V16.5707C23.9289 16.4993 23.7861 16.3564 23.7147 16.3564H21.5005V15.4993H23.7147C23.7861 15.4993 23.9289 15.4279 23.9289 15.285V14.4279C23.9289 14.3565 23.7861 14.2137 23.7147 14.2137H21.5005V13.3566H23.7147C23.7861 13.3566 23.9289 13.2851 23.9289 13.1423V12.3566C23.9289 12.2137 23.7861 12.0709 23.7147 12.0709ZM32 5.85688V26.2131C31.9286 29.4273 29.3573 32.07 26.1431 31.9986H5.78687C2.57273 31.9986 -0.0700108 29.4273 0.00141463 26.2131V5.78546C0.00141463 2.64274 2.57273 0 5.78687 0H26.2145C29.3573 0.0714254 32 2.64274 32 5.85688ZM27.5716 14.6422C27.5716 9.42815 22.3576 5.14263 15.9293 5.14263C9.50099 5.14263 4.28694 9.42815 4.28694 14.6422C4.28694 19.2849 8.42961 23.2133 14.0008 23.9275C15.3579 24.2132 15.215 24.7132 14.9293 26.5703C14.8579 26.856 14.6436 27.7131 15.9293 27.2131C17.1435 26.7131 22.6433 23.2847 25.0717 20.4277C26.7859 18.5706 27.5716 16.7135 27.5716 14.6422Z" fill="#E9ECF0"/>
</svg>
