<svg width="32" height="32" viewBox="0 0 32 32" fill="none" xmlns="http://www.w3.org/2000/svg">
<path d="M29.7143 0C30.9286 0 32 1.07143 32 2.35714V29.7143C32 31 30.9286 32 29.7143 32H2.21429C1 32 0 31 0 29.7143V2.35714C0 1.07143 1 0 2.21429 0H29.7143ZM9.64286 27.4286V12.2143H4.92857V27.4286H9.64286ZM7.28571 10.0714C8.78571 10.0714 10 8.85714 10 7.35714C10 5.85714 8.78571 4.57143 7.28571 4.57143C5.71429 4.57143 4.5 5.85714 4.5 7.35714C4.5 8.85714 5.71429 10.0714 7.28571 10.0714ZM27.4286 27.4286V19.0714C27.4286 15 26.5 11.7857 21.7143 11.7857C19.4286 11.7857 17.8571 13.0714 17.2143 14.2857H17.1429V12.2143H12.6429V27.4286H17.3571V19.9286C17.3571 17.9286 17.7143 16 20.2143 16C22.6429 16 22.6429 18.2857 22.6429 20V27.4286H27.4286Z" fill="#E9ECF0"/>
</svg>
