<svg width="130" height="29" viewBox="0 0 130 29" fill="none" xmlns="http://www.w3.org/2000/svg">
<path d="M52.339 17.1798C52.339 14.6198 53.9141 13.2598 57.7025 13.2598C59.4571 13.2598 60.8129 13.6398 62.3482 14.2598L62.3681 13.2598C62.3681 10.5998 61.7301 9.43977 58.2009 9.43977C56.6856 9.43977 55.2899 9.73977 54.2332 10.1998C53.9341 10.3398 53.7147 10.2198 53.7147 9.87977V9.35977C53.7147 9.11977 53.8144 8.93977 54.0338 8.83977C55.1902 8.35977 56.6258 8.07977 58.4801 8.07977C62.727 8.07977 64.5614 9.75977 64.5614 12.9198V19.4398C64.5614 19.6798 64.4816 19.8398 64.2822 19.9398C62.5077 20.7798 60.474 21.1998 58.2608 21.1998C53.6948 21.1998 52.339 19.7398 52.339 17.1798ZM62.3083 18.9598V15.5198C60.8528 14.9198 59.6565 14.6598 58.1611 14.6598C55.4893 14.6598 54.612 15.4198 54.612 17.2198C54.612 18.9798 55.5092 19.8798 58.3006 19.8798C59.9157 19.8598 61.0522 19.5398 62.3083 18.9598ZM76.7638 10.2398C75.6074 9.71977 74.6304 9.47977 73.135 9.47977C71.9187 9.47977 70.7224 9.77977 69.4463 10.3398V20.4798C69.4463 20.7598 69.3068 20.9198 69.0077 20.9198H67.592C67.3129 20.9198 67.1534 20.7798 67.1534 20.4798V9.89977C67.1534 9.65977 67.2531 9.49977 67.4724 9.37977C69.1473 8.57977 71.1012 8.09977 73.135 8.09977C74.6503 8.09977 75.8466 8.33977 76.9433 8.83977C77.1626 8.93977 77.2623 9.11977 77.2623 9.35977V9.91977C77.2623 10.2398 77.0629 10.3798 76.7638 10.2398ZM78.8175 8.37977V5.09977C78.8175 4.81977 78.9571 4.65977 79.2562 4.65977H80.6917C80.9709 4.65977 81.1304 4.79977 81.1304 5.09977V8.39977H84.5798C84.8589 8.39977 85.0184 8.53977 85.0184 8.83977V9.33977C85.0184 9.61977 84.8789 9.77977 84.5798 9.77977H81.1304V17.5598C81.1304 19.1198 81.1503 19.8798 82.8052 19.8798C83.523 19.8798 84.1212 19.8398 84.6396 19.6998C84.9387 19.6598 85.1381 19.7798 85.1381 20.0798V20.5198C85.1381 20.7598 85.0184 20.9398 84.7592 21.0198C84.1212 21.1398 83.3236 21.2398 82.5859 21.2398C79.7945 21.2398 78.8574 19.8598 78.8574 17.5798V9.75977V8.39977L78.8175 8.37977ZM93.1335 19.8798C94.4693 19.8798 95.6457 19.6598 96.7822 19.1398C97.0813 18.9998 97.3006 19.1198 97.3006 19.4598V19.9998C97.3006 20.2398 97.2009 20.4198 96.9617 20.4998C95.7853 20.9798 94.4095 21.2198 93.1135 21.2198C88.2086 21.2198 85.8359 19.0798 85.8359 15.3198V14.0398C85.8359 10.2998 88.2086 8.11977 92.5353 8.11977C96.6825 8.11977 98.2577 10.2198 98.2577 12.4598C98.2577 14.7598 96.7424 15.5998 94.2102 15.5998H88.1289C88.1289 18.5398 89.6841 19.8798 93.1335 19.8798ZM93.2332 14.2398C95.0675 14.2398 96.0046 13.7998 96.0046 12.4398C96.0046 10.6798 94.9678 9.45977 92.1764 9.45977C89.385 9.45977 88.1289 10.8998 88.1289 14.0198V14.2598H93.2332V14.2398ZM106.971 19.8598C108.426 19.8598 109.563 19.6398 110.6 19.1598C110.899 19.0198 111.118 19.1398 111.118 19.4798V19.9998C111.118 20.2398 111.018 20.4198 110.799 20.5198C109.742 20.9998 108.486 21.2198 106.931 21.2198C102.285 21.2198 99.9724 19.0598 99.9724 15.2998V14.0398C99.9724 10.2998 102.325 8.11977 106.931 8.11977C108.486 8.11977 109.742 8.35977 110.799 8.81977C111.018 8.91977 111.118 9.09977 111.118 9.33977V9.87977C111.118 10.2198 110.919 10.3198 110.6 10.1798C109.563 9.67977 108.406 9.45977 106.971 9.45977C103.801 9.45977 102.225 10.6798 102.225 14.0398V15.2998C102.225 18.6398 103.801 19.8598 106.971 19.8598ZM122.722 20.4798V13.4598C122.722 10.6798 122.503 9.43977 119.233 9.43977C117.618 9.43977 116.541 9.97977 115.405 10.7998V20.4998C115.405 20.7798 115.265 20.9398 114.966 20.9398H113.551C113.271 20.9398 113.112 20.7998 113.112 20.4998V3.69977C113.112 3.41977 113.252 3.25977 113.551 3.25977H114.966C115.245 3.25977 115.405 3.39977 115.405 3.69977V9.39977C116.661 8.65977 117.957 8.07977 119.712 8.07977C123.56 8.07977 124.975 9.71977 124.975 13.2798V20.4598C124.975 20.7398 124.836 20.8998 124.537 20.8998H123.161C122.902 20.9198 122.722 20.7598 122.722 20.4798ZM38.362 9.29977C39.977 8.45977 41.7516 8.03977 43.9847 8.03977C48.8298 8.03977 50.385 10.2198 50.385 13.9598V15.2198C50.385 18.9798 48.8098 21.1398 44.523 21.1398C42.589 21.1398 41.3927 20.6398 40.1963 19.8798V25.5598C40.1963 25.8398 40.0568 25.9998 39.7577 25.9998H38.4816C38.2025 25.9998 38.043 25.8598 38.043 25.5598V9.81977C38.0828 9.57977 38.1626 9.41977 38.362 9.29977ZM43.9049 9.39977C42.3497 9.39977 41.4325 9.67977 40.1963 10.2598V18.4598C41.3528 19.2598 42.4494 19.7998 44.2439 19.7998C47.2147 19.7998 48.112 18.1598 48.112 15.2198V13.9598C48.1718 11.0798 47.1549 9.39977 43.9049 9.39977Z" fill="#575757"/>
<path d="M15.3329 7.49992L16.0307 4.41992L14.2961 5.33992C12.2623 6.37992 9.57062 7.11992 8.57369 7.11992C7.77614 7.11992 7.61663 6.77992 7.63657 6.29992C7.63657 6.29992 7.29762 6.79992 6.93872 7.41992C6.71939 7.79992 6.44025 8.31992 6.28074 8.77992C5.84209 9.91992 6.81909 10.1399 8.77308 9.79992C10.5676 9.45992 13.2792 8.45992 15.3329 7.49992ZM21.155 14.3999L20.3973 18.3599C17.4065 19.8399 12.5016 21.8599 9.63044 21.7199C8.21479 21.6799 7.37737 20.9799 6.93872 20.0399C6.81909 19.8599 6.53995 19.2799 6.34056 18.6799C6.22093 18.2999 6.30068 18.5599 6.20099 18.2399C6.57982 18.7599 7.21786 18.9399 7.95559 18.9399C11.385 18.8399 15.8314 16.9799 19.0614 15.4799L21.155 14.3999ZM28.5722 17.2999L26.2991 18.5599C22.1718 20.9399 19.5599 22.2999 15.9111 23.3599C14.0768 23.8599 11.3252 24.3999 10.3482 23.9199C10.5476 24.0599 10.7869 24.2399 11.0062 24.3999C11.405 24.6399 12.382 25.2399 12.8007 25.3999C14.5353 26.1399 15.8912 26.1599 18.3636 25.5399C21.793 24.4399 25.3022 22.6599 27.8544 20.8999L28.5722 17.2999ZM25.1228 4.47992L24.4648 8.83992C20.158 12.0799 12.701 15.0799 8.91265 15.7999C6.50007 16.2399 5.52308 15.3599 5.3835 14.2199C5.34363 13.1999 5.34363 12.9399 5.40344 12.1799C5.42338 11.9599 5.44332 11.9399 5.50314 11.6999C5.52308 12.1799 6.02154 12.7399 7.27768 12.6599C11.1458 12.3399 18.1442 9.05992 22.6903 6.09992L25.1228 4.47992Z" fill="#0080C9"/>
</svg>
