<svg width="65" height="14" viewBox="0 0 65 14" fill="none" xmlns="http://www.w3.org/2000/svg">
<path d="M26.1695 8.33988C26.1695 7.05988 26.9571 6.37988 28.8512 6.37988C29.7285 6.37988 30.4065 6.56988 31.1741 6.87988L31.1841 6.37988C31.1841 5.04988 30.865 4.46989 29.1005 4.46989C28.3428 4.46989 27.645 4.61988 27.1166 4.84988C26.967 4.91988 26.8574 4.85988 26.8574 4.68988V4.42988C26.8574 4.30988 26.9072 4.21989 27.0169 4.16989C27.5951 3.92989 28.3129 3.78988 29.24 3.78988C31.3635 3.78988 32.2807 4.62988 32.2807 6.20988V9.46989C32.2807 9.58989 32.2408 9.66989 32.1411 9.71989C31.2538 10.1399 30.237 10.3499 29.1304 10.3499C26.8474 10.3499 26.1695 9.61988 26.1695 8.33988ZM31.1542 9.22988V7.50988C30.4264 7.20988 29.8282 7.07988 29.0805 7.07988C27.7446 7.07988 27.306 7.45988 27.306 8.35988C27.306 9.23988 27.7546 9.68988 29.1503 9.68988C29.9578 9.67988 30.5261 9.51988 31.1542 9.22988ZM38.3819 4.86989C37.8037 4.60989 37.3152 4.48988 36.5675 4.48988C35.9594 4.48988 35.3612 4.63989 34.7232 4.91989V9.98988C34.7232 10.1299 34.6534 10.2099 34.5038 10.2099H33.796C33.6565 10.2099 33.5767 10.1399 33.5767 9.98988V4.69988C33.5767 4.57988 33.6265 4.49988 33.7362 4.43988C34.5736 4.03988 35.5506 3.79988 36.5675 3.79988C37.3252 3.79988 37.9233 3.91989 38.4716 4.16989C38.5813 4.21989 38.6311 4.30988 38.6311 4.42988V4.70988C38.6311 4.86988 38.5315 4.93989 38.3819 4.86989ZM39.4088 3.93988V2.29988C39.4088 2.15988 39.4785 2.07988 39.6281 2.07988H40.3459C40.4854 2.07988 40.5652 2.14988 40.5652 2.29988V3.94988H42.2899C42.4295 3.94988 42.5092 4.01989 42.5092 4.16989V4.41989C42.5092 4.55989 42.4394 4.63988 42.2899 4.63988H40.5652V8.52988C40.5652 9.30988 40.5752 9.68988 41.4026 9.68988C41.7615 9.68988 42.0606 9.66988 42.3198 9.59988C42.4693 9.57988 42.569 9.63988 42.569 9.78988V10.0099C42.569 10.1299 42.5092 10.2199 42.3796 10.2599C42.0606 10.3199 41.6618 10.3699 41.293 10.3699C39.8973 10.3699 39.4287 9.67988 39.4287 8.53988V4.62988V3.94988L39.4088 3.93988ZM46.5667 9.68988C47.2347 9.68988 47.8229 9.57989 48.3911 9.31989C48.5407 9.24989 48.6503 9.30988 48.6503 9.47988V9.74988C48.6503 9.86988 48.6005 9.95988 48.4808 9.99988C47.8927 10.2399 47.2048 10.3599 46.5568 10.3599C44.1043 10.3599 42.918 9.28988 42.918 7.40988V6.76989C42.918 4.89989 44.1043 3.80988 46.2677 3.80988C48.3413 3.80988 49.1288 4.85988 49.1288 5.97988C49.1288 7.12988 48.3712 7.54988 47.1051 7.54988H44.0644C44.0644 9.01988 44.842 9.68988 46.5667 9.68988ZM46.6166 6.86989C47.5338 6.86989 48.0023 6.64989 48.0023 5.96989C48.0023 5.08989 47.4839 4.47988 46.0882 4.47988C44.6925 4.47988 44.0644 5.19988 44.0644 6.75988V6.87988H46.6166V6.86989ZM53.4854 9.67988C54.2132 9.67988 54.7815 9.56988 55.2999 9.32988C55.4494 9.25988 55.5591 9.31988 55.5591 9.48988V9.74988C55.5591 9.86988 55.5092 9.95988 55.3996 10.0099C54.8712 10.2499 54.2431 10.3599 53.4655 10.3599C51.1427 10.3599 49.9862 9.27988 49.9862 7.39988V6.76989C49.9862 4.89989 51.1626 3.80988 53.4655 3.80988C54.2431 3.80988 54.8712 3.92988 55.3996 4.15988C55.5092 4.20988 55.5591 4.29989 55.5591 4.41989V4.68988C55.5591 4.85988 55.4594 4.90988 55.2999 4.83988C54.7815 4.58988 54.2032 4.47988 53.4854 4.47988C51.9003 4.47988 51.1127 5.08989 51.1127 6.76989V7.39988C51.1127 9.06988 51.9003 9.67988 53.4854 9.67988ZM61.3612 9.98988V6.47988C61.3612 5.08988 61.2516 4.46989 59.6166 4.46989C58.8091 4.46989 58.2707 4.73988 57.7025 5.14988V9.99988C57.7025 10.1399 57.6327 10.2199 57.4831 10.2199H56.7753C56.6358 10.2199 56.556 10.1499 56.556 9.99988V1.59988C56.556 1.45988 56.6258 1.37988 56.7753 1.37988H57.4831C57.6227 1.37988 57.7025 1.44988 57.7025 1.59988V4.44988C58.3305 4.07988 58.9785 3.78988 59.8558 3.78988C61.7799 3.78988 62.4877 4.60988 62.4877 6.38988V9.97988C62.4877 10.1199 62.418 10.1999 62.2684 10.1999H61.5805C61.4509 10.2099 61.3612 10.1299 61.3612 9.98988ZM19.181 4.39988C19.9885 3.97988 20.8758 3.76989 21.9923 3.76989C24.4149 3.76989 25.1925 4.85988 25.1925 6.72988V7.35988C25.1925 9.23988 24.4049 10.3199 22.2615 10.3199C21.2945 10.3199 20.6963 10.0699 20.0982 9.68988V12.5299C20.0982 12.6699 20.0284 12.7499 19.8788 12.7499H19.2408C19.1012 12.7499 19.0215 12.6799 19.0215 12.5299V4.65988C19.0414 4.53988 19.0813 4.45988 19.181 4.39988ZM21.9525 4.44988C21.1749 4.44988 20.7163 4.58988 20.0982 4.87988V8.97988C20.6764 9.37988 21.2247 9.64988 22.1219 9.64988C23.6074 9.64988 24.056 8.82988 24.056 7.35988V6.72988C24.0859 5.28988 23.5775 4.44988 21.9525 4.44988Z" fill="#575757"/>
<path d="M7.66638 3.49996L8.01531 1.95996L7.14798 2.41996C6.13111 2.93996 4.78525 3.30996 4.28678 3.30996C3.88801 3.30996 3.80826 3.13996 3.81823 2.89996C3.81823 2.89996 3.64875 3.14996 3.4693 3.45996C3.35964 3.64996 3.22007 3.90996 3.14031 4.13996C2.92099 4.70996 3.40948 4.81996 4.38648 4.64996C5.28372 4.47996 6.63954 3.97996 7.66638 3.49996ZM10.5774 6.94996L10.1986 8.92996C8.70319 9.66996 6.25074 10.68 4.81516 10.61C4.10734 10.59 3.68862 10.24 3.4693 9.76996C3.40948 9.67996 3.26991 9.38996 3.17022 9.08996C3.1104 8.89996 3.15028 9.02996 3.10043 8.86996C3.28985 9.12996 3.60887 9.21996 3.97773 9.21996C5.69246 9.16996 7.91562 8.23996 9.53065 7.48996L10.5774 6.94996ZM14.286 8.39996L13.1495 9.02996C11.0859 10.22 9.77988 10.9 7.9555 11.43C7.03832 11.68 5.66255 11.95 5.17405 11.71C5.27375 11.78 5.39338 11.87 5.50304 11.95C5.70243 12.07 6.19092 12.37 6.40028 12.45C7.26761 12.82 7.94553 12.83 9.18172 12.52C10.8964 11.97 12.651 11.08 13.9271 10.2L14.286 8.39996ZM12.5613 1.98996L12.2323 4.16996C10.079 5.78996 6.35043 7.28996 4.45626 7.64996C3.24997 7.86996 2.76148 7.42996 2.69169 6.85996C2.67175 6.34996 2.67175 6.21996 2.70166 5.83996C2.71163 5.72996 2.7216 5.71996 2.75151 5.59996C2.76148 5.83996 3.01071 6.11996 3.63878 6.07996C5.57283 5.91996 9.07206 4.27996 11.3451 2.79996L12.5613 1.98996Z" fill="#0080C9"/>
</svg>
