<svg width="132" height="61" viewBox="0 0 132 61" fill="none" xmlns="http://www.w3.org/2000/svg">
<path d="M53.339 33.1798C53.339 30.6198 54.9141 29.2598 58.7025 29.2598C60.4571 29.2598 61.8129 29.6398 63.3482 30.2598L63.3681 29.2598C63.3681 26.5998 62.7301 25.4398 59.2009 25.4398C57.6856 25.4398 56.2899 25.7398 55.2332 26.1998C54.9341 26.3398 54.7147 26.2198 54.7147 25.8798V25.3598C54.7147 25.1198 54.8144 24.9398 55.0338 24.8398C56.1902 24.3598 57.6258 24.0798 59.4801 24.0798C63.727 24.0798 65.5614 25.7598 65.5614 28.9198V35.4398C65.5614 35.6798 65.4816 35.8398 65.2822 35.9398C63.5077 36.7798 61.474 37.1998 59.2608 37.1998C54.6948 37.1998 53.339 35.7398 53.339 33.1798ZM63.3083 34.9598V31.5198C61.8528 30.9198 60.6565 30.6598 59.1611 30.6598C56.4893 30.6598 55.612 31.4198 55.612 33.2198C55.612 34.9798 56.5092 35.8798 59.3006 35.8798C60.9157 35.8598 62.0522 35.5398 63.3083 34.9598ZM77.7638 26.2398C76.6074 25.7198 75.6304 25.4798 74.135 25.4798C72.9187 25.4798 71.7224 25.7798 70.4463 26.3398V36.4798C70.4463 36.7598 70.3068 36.9198 70.0077 36.9198H68.592C68.3129 36.9198 68.1534 36.7798 68.1534 36.4798V25.8998C68.1534 25.6598 68.2531 25.4998 68.4724 25.3798C70.1473 24.5798 72.1012 24.0998 74.135 24.0998C75.6503 24.0998 76.8466 24.3398 77.9433 24.8398C78.1626 24.9398 78.2623 25.1198 78.2623 25.3598V25.9198C78.2623 26.2398 78.0629 26.3798 77.7638 26.2398ZM79.8175 24.3798V21.0998C79.8175 20.8198 79.9571 20.6598 80.2562 20.6598H81.6917C81.9709 20.6598 82.1304 20.7998 82.1304 21.0998V24.3998H85.5798C85.8589 24.3998 86.0184 24.5398 86.0184 24.8398V25.3398C86.0184 25.6198 85.8789 25.7798 85.5798 25.7798H82.1304V33.5598C82.1304 35.1198 82.1503 35.8798 83.8052 35.8798C84.523 35.8798 85.1212 35.8398 85.6396 35.6998C85.9387 35.6598 86.1381 35.7798 86.1381 36.0798V36.5198C86.1381 36.7598 86.0184 36.9398 85.7592 37.0198C85.1212 37.1398 84.3236 37.2398 83.5859 37.2398C80.7945 37.2398 79.8574 35.8598 79.8574 33.5798V25.7598V24.3998L79.8175 24.3798ZM94.1335 35.8798C95.4693 35.8798 96.6457 35.6598 97.7822 35.1398C98.0813 34.9998 98.3006 35.1198 98.3006 35.4598V35.9998C98.3006 36.2398 98.2009 36.4198 97.9617 36.4998C96.7853 36.9798 95.4095 37.2198 94.1135 37.2198C89.2086 37.2198 86.8359 35.0798 86.8359 31.3198V30.0398C86.8359 26.2998 89.2086 24.1198 93.5353 24.1198C97.6825 24.1198 99.2577 26.2198 99.2577 28.4598C99.2577 30.7598 97.7424 31.5998 95.2102 31.5998H89.1289C89.1289 34.5398 90.6841 35.8798 94.1335 35.8798ZM94.2332 30.2398C96.0675 30.2398 97.0046 29.7998 97.0046 28.4398C97.0046 26.6798 95.9678 25.4598 93.1764 25.4598C90.385 25.4598 89.1289 26.8998 89.1289 30.0198V30.2598H94.2332V30.2398ZM107.971 35.8598C109.426 35.8598 110.563 35.6398 111.6 35.1598C111.899 35.0198 112.118 35.1398 112.118 35.4798V35.9998C112.118 36.2398 112.018 36.4198 111.799 36.5198C110.742 36.9998 109.486 37.2198 107.931 37.2198C103.285 37.2198 100.972 35.0598 100.972 31.2998V30.0398C100.972 26.2998 103.325 24.1198 107.931 24.1198C109.486 24.1198 110.742 24.3598 111.799 24.8198C112.018 24.9198 112.118 25.0998 112.118 25.3398V25.8798C112.118 26.2198 111.919 26.3198 111.6 26.1798C110.563 25.6798 109.406 25.4598 107.971 25.4598C104.801 25.4598 103.225 26.6798 103.225 30.0398V31.2998C103.225 34.6398 104.801 35.8598 107.971 35.8598ZM123.722 36.4798V29.4598C123.722 26.6798 123.503 25.4398 120.233 25.4398C118.618 25.4398 117.541 25.9798 116.405 26.7998V36.4998C116.405 36.7798 116.265 36.9398 115.966 36.9398H114.551C114.271 36.9398 114.112 36.7998 114.112 36.4998V19.6998C114.112 19.4198 114.252 19.2598 114.551 19.2598H115.966C116.245 19.2598 116.405 19.3998 116.405 19.6998V25.3998C117.661 24.6598 118.957 24.0798 120.712 24.0798C124.56 24.0798 125.975 25.7198 125.975 29.2798V36.4598C125.975 36.7398 125.836 36.8998 125.537 36.8998H124.161C123.902 36.9198 123.722 36.7598 123.722 36.4798ZM39.362 25.2998C40.977 24.4598 42.7516 24.0398 44.9847 24.0398C49.8298 24.0398 51.385 26.2198 51.385 29.9598V31.2198C51.385 34.9798 49.8098 37.1398 45.523 37.1398C43.589 37.1398 42.3927 36.6398 41.1963 35.8798V41.5598C41.1963 41.8398 41.0568 41.9998 40.7577 41.9998H39.4816C39.2025 41.9998 39.043 41.8598 39.043 41.5598V25.8198C39.0828 25.5798 39.1626 25.4198 39.362 25.2998ZM44.9049 25.3998C43.3497 25.3998 42.4325 25.6798 41.1963 26.2598V34.4598C42.3528 35.2598 43.4494 35.7998 45.2439 35.7998C48.2147 35.7998 49.112 34.1598 49.112 31.2198V29.9598C49.1718 27.0798 48.1549 25.3998 44.9049 25.3998Z" fill="#575757"/>
<path d="M16.3329 23.4999L17.0307 20.4199L15.2961 21.3399C13.2623 22.3799 10.5706 23.1199 9.57369 23.1199C8.77614 23.1199 8.61663 22.7799 8.63657 22.2999C8.63657 22.2999 8.29762 22.7999 7.93872 23.4199C7.71939 23.7999 7.44025 24.3199 7.28074 24.7799C6.84209 25.9199 7.81909 26.1399 9.77308 25.7999C11.5676 25.4599 14.2792 24.4599 16.3329 23.4999ZM22.155 30.3999L21.3973 34.3599C18.4065 35.8399 13.5016 37.8599 10.6304 37.7199C9.21479 37.6799 8.37737 36.9799 7.93872 36.0399C7.81909 35.8599 7.53995 35.2799 7.34056 34.6799C7.22093 34.2999 7.30068 34.5599 7.20099 34.2399C7.57982 34.7599 8.21786 34.9399 8.95559 34.9399C12.385 34.8399 16.8314 32.9799 20.0614 31.4799L22.155 30.3999ZM29.5722 33.2999L27.2991 34.5599C23.1718 36.9399 20.5599 38.2999 16.9111 39.3599C15.0768 39.8599 12.3252 40.3999 11.3482 39.9199C11.5476 40.0599 11.7869 40.2399 12.0062 40.3999C12.405 40.6399 13.382 41.2399 13.8007 41.3999C15.5353 42.1399 16.8912 42.1599 19.3636 41.5399C22.793 40.4399 26.3022 38.6599 28.8544 36.8999L29.5722 33.2999ZM26.1228 20.4799L25.4648 24.8399C21.158 28.0799 13.701 31.0799 9.91265 31.7999C7.50007 32.2399 6.52308 31.3599 6.3835 30.2199C6.34363 29.1999 6.34363 28.9399 6.40344 28.1799C6.42338 27.9599 6.44332 27.9399 6.50314 27.6999C6.52308 28.1799 7.02154 28.7399 8.27768 28.6599C12.1458 28.3399 19.1442 25.0599 23.6903 22.0999L26.1228 20.4799Z" fill="#0080C9"/>
</svg>
