<svg width="73" height="10" viewBox="0 0 73 10" fill="none" xmlns="http://www.w3.org/2000/svg">
<g clip-path="url(#clip0_313_4309)">
<path d="M25.7949 9.9984L24.8577 8.30812C25.2959 7.43121 25.2959 6.41451 25.2959 5.06737C25.2959 3.37709 25.2959 2.14434 24.3587 1.11492C23.7136 0.390515 22.886 0.034668 21.8028 0.034668C20.7195 0.034668 19.8797 0.441351 19.2468 1.11492C18.3096 2.0935 18.3096 3.32626 18.3096 5.06737C18.3096 6.75764 18.2609 7.9904 19.2468 9.01982C19.9406 9.74422 20.7195 10.1001 21.8028 10.1001C22.0949 10.1001 22.3383 10.0492 22.5939 9.9984H25.7949ZM20.5735 7.83789C20.2327 7.43121 20.1353 6.96099 20.1353 5.06737C20.1353 3.17375 20.2327 2.70353 20.5735 2.29684C20.8169 1.99183 21.2672 1.78849 21.7541 1.78849C22.2409 1.78849 22.6913 1.99183 22.9347 2.29684C23.2755 2.70353 23.3729 3.17375 23.3729 5.06737C23.3729 6.96099 23.2755 7.43121 22.9347 7.83789C22.6913 8.14291 22.2409 8.34625 21.7541 8.34625C21.2672 8.34625 20.8291 8.14291 20.5735 7.83789Z" fill="#3C3C3C"/>
<path d="M47.3746 0.13623H49.1882V9.99829H47.3746V0.13623Z" fill="#3C3C3C"/>
<path d="M3.41194 10.1C1.9879 10.1 0.904657 9.795 -0.0325317 8.81642L1.14808 7.58366C1.7323 8.19369 2.57212 8.40974 3.41194 8.40974C4.49518 8.40974 5.07941 8.00306 5.07941 7.17698C5.07941 6.82114 4.98204 6.56696 4.78729 6.35091C4.59255 6.14757 4.39781 6.09673 3.94748 5.99506L2.81555 5.84256C2.02441 5.74088 1.39151 5.43587 1.00203 5.01648C0.563861 4.55896 0.308264 3.8854 0.308264 3.05932C0.308264 1.31821 1.53756 0.0854492 3.60668 0.0854492C4.88466 0.0854492 5.87054 0.390464 6.66167 1.21654L5.48106 2.39846C4.89684 1.78844 4.15439 1.72489 3.558 1.72489C2.57212 1.72489 2.08527 2.28408 2.08527 2.95765C2.08527 3.21182 2.18264 3.466 2.37738 3.68205C2.57212 3.88539 2.86423 3.98706 3.26588 4.08873L4.39781 4.24124C5.28632 4.34291 5.82185 4.59709 6.21133 5.01648C6.69819 5.52483 6.95378 6.24924 6.95378 7.12615C6.95378 9.01977 5.38369 10.1 3.41194 10.1Z" fill="#3C3C3C"/>
<path d="M9.60712 9.99829V0.13623H15.851V1.8265H11.4693V4.13951H15.2059V5.89333H11.4693V8.30801H15.851V9.99829H9.60712Z" fill="#3C3C3C"/>
<path d="M31.5398 10.1C29.6167 10.1 28.0466 8.7147 28.0466 6.60503V0.13623H29.921V6.55419C29.921 7.68528 30.5661 8.34614 31.5398 8.34614C32.5135 8.34614 33.1586 7.67257 33.1586 6.55419V0.13623H34.9721V6.60503C34.9843 8.7147 33.4629 10.1 31.5398 10.1Z" fill="#3C3C3C"/>
<path d="M43.7354 9.01982C43.0903 9.74422 42.2626 10.1001 41.1794 10.1001C40.0962 10.1001 39.2563 9.69339 38.6234 9.01982C37.6862 8.04124 37.6862 6.80848 37.6862 5.06737C37.6862 3.37709 37.6376 2.14434 38.6234 1.11492C39.2685 0.390515 40.0962 0.034668 41.1794 0.034668C42.2626 0.034668 43.0538 0.441351 43.7354 1.11492C44.6726 2.0935 44.6726 3.32626 44.6726 5.06737C44.6726 6.75764 44.6726 7.9904 43.7354 9.01982ZM42.36 2.29684C42.1166 1.99183 41.6663 1.78849 41.1794 1.78849C40.6925 1.78849 40.2422 1.99183 39.9988 2.29684C39.658 2.70353 39.5606 3.17375 39.5606 5.06737C39.5606 6.96099 39.658 7.43121 39.9988 7.83789C40.2422 8.14291 40.6925 8.34625 41.1794 8.34625C41.6663 8.34625 42.1166 8.14291 42.36 7.83789C42.7008 7.43121 42.7982 6.96099 42.7982 5.06737C42.8104 3.17375 42.713 2.70353 42.36 2.29684Z" fill="#3C3C3C"/>
<path d="M57.9027 9.99829L57.3672 8.25718H54.0201L53.4359 9.99829H51.5128L54.9573 0.13623H56.3813L59.8258 9.99829H57.9027ZM55.6876 3.00842L54.5069 6.60503H56.8682L55.6876 3.00842Z" fill="#3C3C3C"/>
<path d="M70.6461 0.13623H73.0073V2.60174H70.6461V0.13623Z" fill="#50B848"/>
<path d="M64.743 7.88862V0.13623H63.5624V9.12138L64.743 7.88862Z" fill="#50B848"/>
<path d="M65.5706 8.76562L64.39 9.99838H72.9951V8.76562H65.5706Z" fill="#50B848"/>
<path d="M67.1043 5.4231V0.13623H65.9236V6.65586L67.1043 5.4231Z" fill="#50B848"/>
<path d="M67.9319 6.30029L66.7513 7.53305H72.9951V6.30029H67.9319Z" fill="#50B848"/>
<path d="M69.4655 2.95759V0.13623H68.2849V4.19035L69.4655 2.95759Z" fill="#50B848"/>
<path d="M70.2931 3.83447L69.1125 5.06723H72.9951V3.83447H70.2931Z" fill="#50B848"/>
</g>
<defs>
<clipPath id="clip0_313_4309">
<rect width="73" height="10" fill="white"/>
</clipPath>
</defs>
</svg>
