<svg width="132" height="61" viewBox="0 0 132 61" fill="none" xmlns="http://www.w3.org/2000/svg">
<g clip-path="url(#clip0_2851_500)">
<path d="M46.6428 39.4967L44.9481 36.4542C45.7404 34.8758 45.7404 33.0457 45.7404 30.6209C45.7404 27.5784 45.7404 25.3594 44.0458 23.5065C42.8793 22.2025 41.3828 21.562 39.424 21.562C37.4653 21.562 35.9467 22.294 34.8023 23.5065C33.1076 25.2679 33.1076 27.4869 33.1076 30.6209C33.1076 33.6634 33.0196 35.8823 34.8023 37.7353C36.0568 39.0392 37.4653 39.6797 39.424 39.6797C39.9522 39.6797 40.3924 39.5882 40.8546 39.4967H46.6428ZM37.2012 35.6078C36.585 34.8758 36.4089 34.0294 36.4089 30.6209C36.4089 27.2124 36.585 26.366 37.2012 25.6339C37.6414 25.0849 38.4557 24.7189 39.336 24.7189C40.2163 24.7189 41.0306 25.0849 41.4708 25.6339C42.087 26.366 42.2631 27.2124 42.2631 30.6209C42.2631 34.0294 42.087 34.8758 41.4708 35.6078C41.0306 36.1568 40.2163 36.5229 39.336 36.5229C38.4557 36.5229 37.6634 36.1568 37.2012 35.6078Z" fill="#3C3C3C"/>
<path d="M85.6636 21.7446H88.9428V39.4963H85.6636V21.7446Z" fill="#3C3C3C"/>
<path d="M6.16952 39.6795C3.59455 39.6795 1.6358 39.1305 -0.0588379 37.3691L2.07597 35.1501C3.13237 36.2482 4.65095 36.637 6.16952 36.637C8.12827 36.637 9.18467 35.905 9.18467 34.4181C9.18467 33.7776 9.0086 33.32 8.65646 32.9311C8.30433 32.5651 7.9522 32.4736 7.13789 32.2906L5.09111 32.0161C3.66057 31.8331 2.51614 31.2841 1.81187 30.5292C1.01957 29.7056 0.557396 28.4932 0.557396 27.0063C0.557396 23.8723 2.78024 21.6533 6.52166 21.6533C8.83253 21.6533 10.6152 22.2023 12.0457 23.6893L9.91094 25.8167C8.85454 24.7187 7.51203 24.6043 6.43362 24.6043C4.65095 24.6043 3.77061 25.6109 3.77061 26.8233C3.77061 27.2808 3.94668 27.7383 4.29881 28.1272C4.65095 28.4932 5.17915 28.6762 5.90542 28.8592L7.9522 29.1337C9.55881 29.3168 10.5272 29.7743 11.2314 30.5292C12.1118 31.4442 12.5739 32.7481 12.5739 34.3266C12.5739 37.7351 9.73487 39.6795 6.16952 39.6795Z" fill="#3C3C3C"/>
<path d="M17.3718 39.4963V21.7446H28.6621V24.7871H20.7391V28.9505H27.4957V32.1074H20.7391V36.4538H28.6621V39.4963H17.3718Z" fill="#3C3C3C"/>
<path d="M57.0308 39.6793C53.5534 39.6793 50.7144 37.1859 50.7144 33.3885V21.7446H54.1036V33.297C54.1036 35.3329 55.2701 36.5225 57.0308 36.5225C58.7914 36.5225 59.9579 35.31 59.9579 33.297V21.7446H63.2371V33.3885C63.2591 37.1859 60.5081 39.6793 57.0308 39.6793Z" fill="#3C3C3C"/>
<path d="M79.0831 37.7353C77.9167 39.0392 76.4201 39.6797 74.4614 39.6797C72.5026 39.6797 70.9841 38.9477 69.8396 37.7353C68.145 35.9738 68.145 33.7549 68.145 30.6209C68.145 27.5784 68.057 25.3594 69.8396 23.5065C71.0061 22.2025 72.5026 21.562 74.4614 21.562C76.4201 21.562 77.8507 22.294 79.0831 23.5065C80.7778 25.2679 80.7778 27.4869 80.7778 30.6209C80.7778 33.6634 80.7778 35.8823 79.0831 37.7353ZM76.5962 25.6339C76.156 25.0849 75.3417 24.7189 74.4614 24.7189C73.5811 24.7189 72.7668 25.0849 72.3266 25.6339C71.7104 26.366 71.5343 27.2124 71.5343 30.6209C71.5343 34.0294 71.7104 34.8758 72.3266 35.6078C72.7668 36.1568 73.5811 36.5229 74.4614 36.5229C75.3417 36.5229 76.156 36.1568 76.5962 35.6078C77.2124 34.8758 77.3885 34.0294 77.3885 30.6209C77.4105 27.2124 77.2344 26.366 76.5962 25.6339Z" fill="#3C3C3C"/>
<path d="M104.701 39.4963L103.732 36.3623H97.6802L96.6238 39.4963H93.1465L99.3748 21.7446H101.95L108.178 39.4963H104.701ZM100.695 26.9146L98.5605 33.3885H102.83L100.695 26.9146Z" fill="#3C3C3C"/>
<path d="M127.743 21.7446H132.013V26.1826H127.743V21.7446Z" fill="#50B848"/>
<path d="M117.07 35.6989V21.7446H114.935V37.9179L117.07 35.6989Z" fill="#50B848"/>
<path d="M118.566 37.2773L116.431 39.4963H131.991V37.2773H118.566Z" fill="#50B848"/>
<path d="M121.339 31.261V21.7446H119.204V33.48L121.339 31.261Z" fill="#50B848"/>
<path d="M122.836 32.8403L120.701 35.0593H131.991V32.8403H122.836Z" fill="#50B848"/>
<path d="M125.609 26.8231V21.7446H123.474V29.042L125.609 26.8231Z" fill="#50B848"/>
<path d="M127.105 28.4019L124.97 30.6208H131.991V28.4019H127.105Z" fill="#50B848"/>
</g>
<defs>
<clipPath id="clip0_2851_500">
<rect width="132" height="18" fill="white" transform="translate(0 21.5)"/>
</clipPath>
</defs>
</svg>
