<svg width="132" height="19" viewBox="0 0 132 19" fill="none" xmlns="http://www.w3.org/2000/svg">
<g clip-path="url(#clip0_2994_501)">
<path d="M46.6428 18.4967L44.9481 15.4542C45.7404 13.8758 45.7404 12.0457 45.7404 9.62087C45.7404 6.57838 45.7404 4.35941 44.0458 2.50646C42.8793 1.20254 41.3828 0.562012 39.424 0.562012C37.4653 0.562012 35.9467 1.29404 34.8023 2.50646C33.1076 4.26791 33.1076 6.48687 33.1076 9.62087C33.1076 12.6634 33.0196 14.8823 34.8023 16.7353C36.0568 18.0392 37.4653 18.6797 39.424 18.6797C39.9522 18.6797 40.3924 18.5882 40.8546 18.4967H46.6428ZM37.2012 14.6078C36.585 13.8758 36.4089 13.0294 36.4089 9.62087C36.4089 6.21236 36.585 5.36596 37.2012 4.63393C37.6414 4.08491 38.4557 3.71889 39.336 3.71889C40.2163 3.71889 41.0306 4.08491 41.4708 4.63393C42.087 5.36596 42.2631 6.21236 42.2631 9.62087C42.2631 13.0294 42.087 13.8758 41.4708 14.6078C41.0306 15.1568 40.2163 15.5229 39.336 15.5229C38.4557 15.5229 37.6634 15.1568 37.2012 14.6078Z" fill="#3C3C3C"/>
<path d="M85.6636 0.744629H88.9428V18.4963H85.6636V0.744629Z" fill="#3C3C3C"/>
<path d="M6.16952 18.6795C3.59455 18.6795 1.6358 18.1305 -0.0588379 16.3691L2.07597 14.1501C3.13237 15.2482 4.65095 15.637 6.16952 15.637C8.12827 15.637 9.18467 14.905 9.18467 13.4181C9.18467 12.7776 9.0086 12.32 8.65646 11.9311C8.30433 11.5651 7.9522 11.4736 7.13789 11.2906L5.09111 11.0161C3.66057 10.8331 2.51614 10.2841 1.81187 9.52918C1.01957 8.70564 0.557396 7.49322 0.557396 6.00629C0.557396 2.87229 2.78024 0.65332 6.52166 0.65332C8.83253 0.65332 10.6152 1.20235 12.0457 2.68928L9.91094 4.81674C8.85454 3.71869 7.51203 3.60432 6.43362 3.60432C4.65095 3.60432 3.77061 4.61085 3.77061 5.82328C3.77061 6.2808 3.94668 6.73832 4.29881 7.12721C4.65095 7.49322 5.17915 7.67622 5.90542 7.85923L7.9522 8.13375C9.55881 8.31675 10.5272 8.77427 11.2314 9.52918C12.1118 10.4442 12.5739 11.7481 12.5739 13.3266C12.5739 16.7351 9.73487 18.6795 6.16952 18.6795Z" fill="#3C3C3C"/>
<path d="M17.3718 18.4963V0.744629H28.6621V3.78712H20.7391V7.95054H27.4957V11.1074H20.7391V15.4538H28.6621V18.4963H17.3718Z" fill="#3C3C3C"/>
<path d="M57.0308 18.6793C53.5534 18.6793 50.7144 16.1859 50.7144 12.3885V0.744629H54.1036V12.297C54.1036 14.3329 55.2701 15.5225 57.0308 15.5225C58.7914 15.5225 59.9579 14.31 59.9579 12.297V0.744629H63.2371V12.3885C63.2591 16.1859 60.5081 18.6793 57.0308 18.6793Z" fill="#3C3C3C"/>
<path d="M79.0831 16.7353C77.9167 18.0392 76.4201 18.6797 74.4614 18.6797C72.5026 18.6797 70.9841 17.9477 69.8396 16.7353C68.145 14.9738 68.145 12.7549 68.145 9.62087C68.145 6.57838 68.057 4.35941 69.8396 2.50646C71.0061 1.20254 72.5026 0.562012 74.4614 0.562012C76.4201 0.562012 77.8507 1.29404 79.0831 2.50646C80.7778 4.26791 80.7778 6.48687 80.7778 9.62087C80.7778 12.6634 80.7778 14.8823 79.0831 16.7353ZM76.5962 4.63393C76.156 4.08491 75.3417 3.71889 74.4614 3.71889C73.5811 3.71889 72.7668 4.08491 72.3266 4.63393C71.7104 5.36596 71.5343 6.21236 71.5343 9.62087C71.5343 13.0294 71.7104 13.8758 72.3266 14.6078C72.7668 15.1568 73.5811 15.5229 74.4614 15.5229C75.3417 15.5229 76.156 15.1568 76.5962 14.6078C77.2124 13.8758 77.3885 13.0294 77.3885 9.62087C77.4105 6.21236 77.2344 5.36596 76.5962 4.63393Z" fill="#3C3C3C"/>
<path d="M104.701 18.4963L103.732 15.3623H97.6802L96.6238 18.4963H93.1465L99.3748 0.744629H101.95L108.178 18.4963H104.701ZM100.695 5.91458L98.5605 12.3885H102.83L100.695 5.91458Z" fill="#3C3C3C"/>
<path d="M127.743 0.744629H132.013V5.18255H127.743V0.744629Z" fill="#50B848"/>
<path d="M117.07 14.6989V0.744629H114.935V16.9179L117.07 14.6989Z" fill="#50B848"/>
<path d="M118.566 16.2773L116.431 18.4963H131.991V16.2773H118.566Z" fill="#50B848"/>
<path d="M121.339 10.261V0.744629H119.204V12.48L121.339 10.261Z" fill="#50B848"/>
<path d="M122.836 11.8403L120.701 14.0593H131.991V11.8403H122.836Z" fill="#50B848"/>
<path d="M125.609 5.82308V0.744629H123.474V8.04204L125.609 5.82308Z" fill="#50B848"/>
<path d="M127.105 7.40186L124.97 9.62082H131.991V7.40186H127.105Z" fill="#50B848"/>
</g>
<defs>
<clipPath id="clip0_2994_501">
<rect width="132" height="18" fill="white" transform="translate(0 0.5)"/>
</clipPath>
</defs>
</svg>
