<svg width="132" height="61" viewBox="0 0 132 61" fill="none" xmlns="http://www.w3.org/2000/svg">
<g clip-path="url(#clip0_2851_522)">
<path d="M18.2571 30.0946C17.9034 29.764 17.4765 29.4896 16.9886 29.2806C16.5129 29.0748 15.9092 28.9189 15.1957 28.8129L13.4424 28.5571C13.1801 28.5197 12.9514 28.4574 12.7593 28.37C12.5764 28.2827 12.4209 28.186 12.305 28.08C12.1983 27.9678 12.1221 27.8555 12.0763 27.7276C12.0245 27.5935 12.0001 27.4563 12.0001 27.3097C12.0001 26.9043 12.1434 26.5613 12.4331 26.2682C12.7228 25.9781 13.2045 25.8285 13.8632 25.8285C14.3144 25.8285 14.7993 25.8846 15.3024 26C15.7567 26.1029 16.1988 26.3555 16.6105 26.7547L16.9124 27.0447L19.3487 24.5811L19.0377 24.2692C18.3577 23.5894 17.5954 23.0967 16.7751 22.8066C15.9702 22.5228 15.0188 22.3794 13.9485 22.3794C13.1009 22.3794 12.3233 22.501 11.6433 22.7443C10.9542 22.9906 10.3596 23.3368 9.8748 23.7796C9.38693 24.2255 9.00578 24.765 8.7466 25.3825C8.48742 25.9937 8.3563 26.6798 8.3563 27.4189C8.3563 28.7973 8.75575 29.9043 9.54854 30.7152C10.2651 31.4324 11.311 31.8939 12.6618 32.0935L14.4456 32.3492C14.8359 32.4147 15.0463 32.4802 15.153 32.5239C15.2963 32.5831 15.4213 32.6642 15.528 32.764C15.7476 32.9792 15.8543 33.2942 15.8543 33.7245C15.8543 34.1954 15.6988 34.5228 15.3695 34.763C15.0005 35.028 14.4242 35.1621 13.6589 35.1621C13.0094 35.1621 12.3904 35.0748 11.8232 34.9033C11.2835 34.7411 10.7987 34.4418 10.381 34.0114L10.0791 33.7027L7.6001 36.2287L7.89587 36.5374C8.66427 37.3389 9.53024 37.9002 10.4755 38.212C11.3964 38.5145 12.4514 38.6705 13.6162 38.6705C14.4303 38.6705 15.2018 38.5613 15.9061 38.343C16.6196 38.1216 17.2508 37.7973 17.7844 37.3763C18.3241 36.949 18.7571 36.4158 19.0681 35.7921C19.3822 35.1653 19.5408 34.4386 19.5408 33.6341C19.5408 32.9075 19.4432 32.2432 19.2481 31.6601C19.0468 31.0551 18.7144 30.528 18.2571 30.0946Z" fill="#6C6C6D"/>
<path d="M30.6733 32.8017C30.6733 33.572 30.4843 34.1426 30.097 34.5512C29.7128 34.9566 29.1945 35.153 28.5175 35.153C27.8406 35.153 27.3283 34.9566 26.9533 34.5543C26.5721 34.1458 26.3861 33.572 26.3861 32.8017V22.5044H22.6326V32.9108C22.6326 33.7778 22.7881 34.5761 23.096 35.284C23.404 35.9888 23.8309 36.6 24.3645 37.1021C24.8951 37.5979 25.5232 37.9909 26.2306 38.2653C26.935 38.5397 27.7034 38.677 28.5175 38.677C29.3286 38.677 30.1001 38.5397 30.8044 38.2653C31.5118 37.9909 32.14 37.6011 32.6705 37.1021C33.2042 36.6031 33.631 35.9919 33.939 35.284C34.247 34.5761 34.4025 33.7778 34.4025 32.9108V22.5044H30.6733V32.8017Z" fill="#6C6C6D"/>
<path d="M47.9624 31.3825C48.3222 31.1236 48.6454 30.8055 48.9198 30.4376C49.1973 30.0696 49.4169 29.6455 49.5785 29.1777C49.7401 28.7068 49.8224 28.1704 49.8224 27.5841C49.8224 26.8949 49.7035 26.2338 49.4687 25.6226C49.2309 25.0051 48.8802 24.4594 48.4228 24.001C47.9685 23.5426 47.4105 23.1746 46.7641 22.9064C46.1176 22.6382 45.3828 22.501 44.5839 22.501H38.3452V38.5426H42.0957V32.4927H43.4831L46.3768 38.5426H50.7006L47.2794 31.7879C47.5142 31.6756 47.7429 31.5384 47.9624 31.3825ZM42.0927 26.0186H44.3918C44.9223 26.0186 45.3279 26.159 45.6298 26.449C45.9255 26.7328 46.0688 27.1008 46.0688 27.5717C46.0688 28.0426 45.9255 28.4105 45.6298 28.6943C45.3279 28.9843 44.9223 29.1278 44.3918 29.1278H42.0927V26.0186Z" fill="#6C6C6D"/>
<path d="M56.982 27.6187C57.0307 27.3474 57.0917 27.1291 57.1649 26.9731C57.235 26.8203 57.3296 26.68 57.4424 26.5521C57.6101 26.3557 57.8266 26.1966 58.0827 26.0719C58.3358 25.9503 58.6377 25.891 58.9731 25.891C59.6134 25.891 60.1165 26.0469 60.4641 26.3494C60.8209 26.6613 61.077 27.1415 61.2204 27.7684L61.2966 28.1052H65.0502L64.9739 27.6C64.8702 26.9232 64.672 26.2652 64.3854 25.6478C64.0927 25.021 63.6963 24.4565 63.2023 23.9763C62.7084 23.4929 62.1016 23.1 61.4003 22.8131C60.6989 22.523 59.8818 22.3765 58.97 22.3765C58.0827 22.3765 57.2777 22.5324 56.5734 22.838C55.8721 23.1436 55.2317 23.5896 54.6676 24.1665C54.259 24.5844 53.9389 25.0365 53.7193 25.5137C53.5028 25.9815 53.3473 26.4898 53.2558 27.023C53.1705 27.5407 53.1186 28.0989 53.1034 28.6821C53.0881 29.2496 53.082 29.8702 53.082 30.5251C53.082 31.18 53.0881 31.8006 53.1034 32.3681C53.1186 32.9513 53.1674 33.5126 53.2558 34.0303C53.3443 34.5636 53.4998 35.0719 53.7193 35.5397C53.9389 36.0168 54.259 36.469 54.6676 36.8869C55.2317 37.4638 55.8781 37.9097 56.5856 38.2153C57.293 38.521 58.098 38.6769 58.97 38.6769C59.8055 38.6769 60.6075 38.5397 61.3545 38.2684C62.1168 37.9908 62.8273 37.5012 63.4676 36.812C64.0256 36.2101 64.4251 35.5085 64.6599 34.7289C64.8855 33.9711 65.0014 33.0106 65.0014 31.8785V29.2185H58.5432V32.5864H61.2722V32.7237C61.2722 33.076 61.2265 33.3973 61.135 33.6873C61.0496 33.9648 60.9032 34.2237 60.7142 34.4544C60.519 34.6758 60.2842 34.8474 59.9915 34.9721C59.6988 35.0968 59.3542 35.1623 58.97 35.1623C58.6285 35.1623 58.3267 35.1031 58.0705 34.9877C57.8113 34.8692 57.604 34.7195 57.4332 34.5168C57.3235 34.3921 57.2289 34.2517 57.1588 34.0989C57.0856 33.943 57.0246 33.7278 56.9759 33.4534C56.924 33.1634 56.8874 32.7829 56.8691 32.3183C56.8478 31.8474 56.8386 31.2455 56.8386 30.5282C56.8386 29.811 56.8478 29.2122 56.8691 28.7476C56.8935 28.2891 56.9301 27.9118 56.982 27.6187Z" fill="#6C6C6D"/>
<path d="M79.5368 26.0189V22.5044H68.9133V38.546H79.5368V35.0283H72.6639V32.2185H78.5153V28.7009H72.6639V26.0189H79.5368Z" fill="#6C6C6D"/>
<path d="M124.156 30.5L112.422 18.5L108.446 22.5634L116.207 30.5L108.446 38.4366L112.422 42.5L124.156 30.5Z" fill="#4CB648"/>
<path d="M92.551 22.5634L96.5241 18.5L108.257 30.5L96.5241 42.5L92.551 38.4366L100.308 30.5L92.551 22.5634Z" fill="#4CB648"/>
<path d="M88.5718 26.633L84.7878 30.5029L88.5718 34.3729L92.3557 30.5029L88.5718 26.633Z" fill="#4CB648"/>
</g>
<defs>
<clipPath id="clip0_2851_522">
<rect width="120" height="24" fill="white" transform="translate(6 18.5)"/>
</clipPath>
</defs>
</svg>
