<svg width="69" height="14" viewBox="0 0 69 14" fill="none" xmlns="http://www.w3.org/2000/svg">
<g clip-path="url(#clip0_313_4311)">
<path d="M69 6.97578C68.9357 7.04354 68.8875 7.10162 68.8329 7.15647C66.6118 9.38601 64.3876 11.6123 62.1666 13.8451C62.0573 13.9548 61.9962 13.9871 61.8709 13.858C61.1959 13.1675 60.5209 12.4835 59.8298 11.8124C59.6305 11.622 59.7655 11.5381 59.8845 11.4187C61.273 10.0281 62.6519 8.62777 64.0565 7.25004C64.3137 6.99837 64.2719 6.88544 64.0437 6.65958C62.6551 5.28829 61.2826 3.89442 59.8973 2.52314C59.7045 2.33277 59.7012 2.23275 59.8973 2.04238C60.553 1.40998 61.1926 0.758218 61.8323 0.106455C61.9673 -0.0322871 62.0412 -0.0451933 62.1858 0.103228C64.394 2.32955 66.6086 4.54619 68.8232 6.76605C68.8843 6.82736 68.9357 6.89512 69.0032 6.97255L69 6.97578Z" fill="#54B74B"/>
<path d="M52.6942 14.0001C52.6267 13.9421 52.5688 13.8937 52.5174 13.842C51.8553 13.1774 51.1995 12.5063 50.5278 11.8545C50.3478 11.6803 50.3767 11.5964 50.5374 11.435C51.942 10.0412 53.3306 8.63117 54.7384 7.24375C54.9731 7.01144 54.9538 6.90174 54.732 6.68233C53.3434 5.31105 51.971 3.91718 50.5856 2.5459C50.3896 2.3523 50.3542 2.24905 50.576 2.03933C51.2188 1.42951 51.8392 0.79388 52.4563 0.158249C52.6138 -0.00307802 52.7006 -0.0547028 52.8934 0.13889C55.0791 2.34908 57.2777 4.54958 59.4794 6.74364C59.6562 6.91787 59.6658 7.01144 59.4826 7.19213C57.2712 9.39586 55.0695 11.6093 52.8645 13.8195C52.8099 13.8743 52.7617 13.9324 52.7006 14.0001H52.6942Z" fill="#54B74B"/>
<path d="M25.5339 11.632C24.6853 11.632 23.9042 11.6223 23.1232 11.6384C22.911 11.6416 22.8339 11.5384 22.7568 11.3738C22.3036 10.4091 21.8439 9.44758 21.3875 8.48607C21.2525 8.20536 20.8379 8.05048 20.5679 8.17632C20.42 8.24407 20.4714 8.37314 20.4714 8.47961C20.4682 9.40563 20.4554 10.3317 20.4747 11.2577C20.4811 11.561 20.4007 11.6578 20.0922 11.6416C19.5811 11.6158 19.0636 11.6158 18.5525 11.6416C18.244 11.6578 18.17 11.5545 18.17 11.2544C18.1829 8.87325 18.1765 6.49528 18.1765 4.11409C18.1765 3.60107 18.1765 3.08482 18.1765 2.5718C18.1765 2.4266 18.1668 2.28786 18.3854 2.29432C19.745 2.32981 21.1079 2.19752 22.461 2.36207C23.7628 2.52017 24.6692 3.36876 24.9617 4.59485C25.2542 5.81448 24.8492 6.84053 23.7339 7.62135C23.525 7.76977 23.5989 7.87302 23.6792 8.02789C24.2578 9.14428 24.8332 10.2639 25.4117 11.3835C25.4471 11.448 25.476 11.5158 25.5339 11.6384V11.632ZM20.4682 5.29501C20.4682 5.54023 20.4714 5.78222 20.4682 6.02743C20.4682 6.1694 20.51 6.24361 20.6643 6.24039C21.0886 6.23393 21.5128 6.25652 21.9339 6.22103C22.4096 6.18231 22.7503 5.77576 22.7535 5.30791C22.7535 4.84006 22.416 4.4432 21.9436 4.38189C21.7668 4.35931 21.5868 4.36253 21.4068 4.36253C20.7811 4.36253 20.4682 4.67336 20.4682 5.29501Z" fill="#656668"/>
<path d="M32.2613 6.24959C32.7756 6.24959 33.2899 6.24959 33.8009 6.24959C33.9552 6.24959 34.0741 6.25604 34.0741 6.46899C34.0677 7.26595 34.1063 8.06936 33.9745 8.85664C33.7013 10.457 32.692 11.4411 31.0849 11.6637C29.8217 11.8412 28.6903 11.5637 27.7742 10.6054C27.2728 10.0795 27.0253 9.43742 26.9546 8.73403C26.8357 7.55311 26.8325 6.36897 26.9546 5.18805C27.1603 3.2134 28.8735 2.03894 30.8213 2.23576C32.5152 2.40677 33.5984 3.34247 33.9809 4.92993C34.0548 5.23968 33.997 5.33647 33.6691 5.32357C33.1452 5.29775 32.6149 5.30743 32.0909 5.32357C31.8595 5.33002 31.731 5.28162 31.6377 5.0364C31.4127 4.44917 30.9467 4.21686 30.2749 4.28784C29.7317 4.34592 29.3749 4.65244 29.2849 5.25258C29.1114 6.40123 29.1017 7.56279 29.2913 8.71144C29.4071 9.41483 29.8667 9.70845 30.6028 9.64714C31.2777 9.59229 31.7245 9.1438 31.776 8.48881C31.792 8.26941 31.7567 8.13066 31.4963 8.17261C31.4835 8.17261 31.4706 8.17261 31.4577 8.17261C31.117 8.14034 30.6542 8.33071 30.471 8.09195C30.3006 7.86931 30.4099 7.42728 30.4067 7.08204C30.4035 6.25281 30.4067 6.25281 31.2199 6.25281C31.567 6.25281 31.9142 6.25281 32.2613 6.25281V6.24959Z" fill="#656668"/>
<path d="M8.88737 5.59825C8.88737 4.6077 8.89702 3.61715 8.88094 2.6266C8.87773 2.34912 8.96452 2.27813 9.22808 2.28781C9.76486 2.30717 10.3081 2.3104 10.8448 2.28781C11.1245 2.27491 11.1856 2.37816 11.1823 2.63951C11.1727 4.3883 11.1759 6.14031 11.1759 7.8891C11.1759 8.05688 11.1759 8.22467 11.1856 8.38922C11.2241 9.20876 11.6709 9.66371 12.4262 9.6508C13.1655 9.64112 13.6412 9.15391 13.6509 8.35695C13.6637 7.30187 13.6541 6.24679 13.6541 5.19171C13.6541 4.34313 13.6669 3.49132 13.6477 2.64273C13.6412 2.34589 13.7344 2.27168 14.0173 2.28459C14.5669 2.30717 15.1198 2.29749 15.6726 2.28459C15.8591 2.28459 15.9523 2.32331 15.9523 2.53626C15.9426 4.53027 15.9876 6.5275 15.9298 8.51828C15.8623 10.8027 13.8116 11.9255 11.9184 11.6674C9.9545 11.4028 8.89059 10.1316 8.89059 8.13755C8.89059 7.28897 8.89059 6.44038 8.89059 5.58857L8.88737 5.59825Z" fill="#656668"/>
<path d="M36.308 6.96616C36.308 5.5368 36.3144 4.11067 36.3016 2.68131C36.3016 2.39414 36.3498 2.28444 36.6744 2.28767C38.484 2.3038 40.2937 2.30057 42.1033 2.28767C42.3701 2.28767 42.4633 2.35542 42.4504 2.62968C42.4279 3.09108 42.4215 3.5557 42.4472 4.02032C42.46 4.29458 42.3797 4.37202 42.1097 4.36879C41.0586 4.35266 40.0044 4.37524 38.9533 4.35589C38.6544 4.34943 38.574 4.44623 38.5965 4.72694C38.619 5.02055 38.6126 5.32062 38.5965 5.61424C38.5837 5.84978 38.6608 5.92399 38.9019 5.92076C39.7729 5.90786 40.6472 5.92722 41.5215 5.91108C41.7883 5.90463 41.8783 5.97884 41.8654 6.2531C41.8429 6.70159 41.8397 7.15653 41.8654 7.60502C41.8847 7.91154 41.7658 7.96639 41.4926 7.95994C40.6472 7.94381 39.7987 7.95994 38.9501 7.95026C38.6898 7.94704 38.5773 8.01157 38.5965 8.29228C38.619 8.61171 38.6223 8.93759 38.5965 9.25702C38.5708 9.56999 38.709 9.61516 38.9758 9.61194C40.014 9.59903 41.0554 9.61839 42.0936 9.59903C42.3893 9.59258 42.4633 9.67969 42.4472 9.96686C42.4183 10.4283 42.4247 10.8929 42.4472 11.3543C42.4568 11.6027 42.3636 11.6511 42.1354 11.6479C40.3001 11.6382 38.4648 11.6382 36.6294 11.6479C36.3787 11.6479 36.3048 11.5834 36.308 11.3285C36.3209 9.87329 36.3144 8.42134 36.3144 6.96616H36.308Z" fill="#656668"/>
<path d="M3.46175 11.7125C2.20498 11.6931 1.07357 11.4188 0.154301 10.5251C-0.0289102 10.3476 -0.0739095 10.2379 0.13823 10.0411C0.514296 9.68942 0.861433 9.31191 1.21178 8.93441C1.34678 8.78599 1.43357 8.73759 1.60392 8.90859C2.24677 9.54745 3.05354 9.68619 3.91817 9.61198C4.05638 9.59908 4.19781 9.55713 4.32638 9.50551C4.66066 9.37322 4.83423 9.12477 4.81816 8.75695C4.80209 8.37944 4.57709 8.16003 4.23317 8.08905C3.73175 7.98903 3.21747 7.9374 2.71283 7.84706C1.42392 7.61475 0.636437 6.90813 0.43394 5.81111C0.125373 4.14943 0.986788 2.74911 2.62926 2.36192C4.12067 2.01023 5.50922 2.24577 6.7017 3.29117C6.88491 3.4525 6.92027 3.55575 6.72098 3.73644C6.35778 4.06232 6.01064 4.40756 5.67957 4.7657C5.51565 4.94317 5.41922 4.91413 5.24565 4.77538C4.68637 4.32044 4.02746 4.18815 3.32675 4.29463C2.87997 4.36239 2.60355 4.63987 2.57784 5.00124C2.55212 5.36907 2.78676 5.66269 3.25282 5.76271C3.72853 5.86596 4.21388 5.91758 4.69602 5.99502C6.05885 6.21443 6.79491 6.93717 7.00384 8.25683C7.20634 9.55713 6.63741 10.6896 5.49315 11.2737C4.84709 11.6028 4.15602 11.7092 3.46818 11.7125H3.46175Z" fill="#656668"/>
<path d="M50.3285 6.95951C50.2803 7.01759 50.2353 7.07889 50.1838 7.13052C49.5153 7.80486 48.8403 8.47276 48.1749 9.15034C48.0464 9.28262 47.966 9.2794 47.8374 9.15034C47.1721 8.47276 46.5003 7.79841 45.8253 7.13374C45.6871 6.99823 45.7096 6.91756 45.835 6.79173C46.51 6.12383 47.1817 5.44948 47.8503 4.77513C47.9564 4.66866 48.0303 4.62349 48.1589 4.75577C48.8435 5.45271 49.5346 6.13996 50.2224 6.83045C50.2578 6.86594 50.2867 6.90788 50.3285 6.95951Z" fill="#54B74B"/>
</g>
<defs>
<clipPath id="clip0_313_4311">
<rect width="69" height="14" fill="white"/>
</clipPath>
</defs>
</svg>
