<svg width="120" height="25" viewBox="0 0 120 25" fill="none" xmlns="http://www.w3.org/2000/svg">
<g clip-path="url(#clip0_2994_523)">
<path d="M12.2571 12.0946C11.9034 11.764 11.4765 11.4896 10.9886 11.2806C10.5129 11.0748 9.90917 10.9189 9.19566 10.8129L7.44237 10.5571C7.18014 10.5197 6.95145 10.4574 6.75935 10.37C6.5764 10.2827 6.42089 10.186 6.30502 10.08C6.1983 9.96775 6.12207 9.85549 6.07633 9.72763C6.02449 9.59353 6.0001 9.45632 6.0001 9.30975C6.0001 8.90434 6.14341 8.56131 6.43308 8.26817C6.72276 7.97815 7.20453 7.82846 7.86316 7.82846C8.31444 7.82846 8.79926 7.88459 9.30238 7.99998C9.75671 8.10289 10.1988 8.35549 10.6105 8.75465L10.9124 9.04468L13.3487 6.58106L13.0377 6.26921C12.3577 5.58937 11.5954 5.09665 10.7751 4.80663C9.97016 4.52285 9.01881 4.37939 7.94854 4.37939C7.10086 4.37939 6.32331 4.50102 5.64334 4.74426C4.95422 4.99062 4.35963 5.33678 3.8748 5.7796C3.38693 6.22555 3.00578 6.76505 2.7466 7.38251C2.48742 7.99374 2.3563 8.67981 2.3563 9.4189C2.3563 10.7973 2.75575 11.9043 3.54854 12.7152C4.2651 13.4324 5.31098 13.8939 6.66177 14.0935L8.44556 14.3492C8.83586 14.4147 9.04625 14.4802 9.15297 14.5239C9.29629 14.5831 9.4213 14.6642 9.52802 14.764C9.74757 14.9792 9.85429 15.2942 9.85429 15.7245C9.85429 16.1954 9.69878 16.5228 9.36947 16.763C9.00051 17.028 8.42421 17.1621 7.65886 17.1621C7.00938 17.1621 6.3904 17.0748 5.82324 16.9033C5.28353 16.7411 4.79871 16.4418 4.38097 16.0114L4.0791 15.7027L1.6001 18.2287L1.89587 18.5374C2.66427 19.3389 3.53024 19.9002 4.4755 20.212C5.39635 20.5145 6.45138 20.6705 7.61617 20.6705C8.43031 20.6705 9.20176 20.5613 9.90613 20.343C10.6196 20.1216 11.2508 19.7973 11.7844 19.3763C12.3241 18.949 12.7571 18.4158 13.0681 17.7921C13.3822 17.1653 13.5408 16.4386 13.5408 15.6341C13.5408 14.9075 13.4432 14.2432 13.2481 13.6601C13.0468 13.0551 12.7144 12.528 12.2571 12.0946Z" fill="#6C6C6D"/>
<path d="M24.6733 14.8017C24.6733 15.572 24.4843 16.1426 24.097 16.5512C23.7128 16.9566 23.1945 17.153 22.5175 17.153C21.8406 17.153 21.3283 16.9566 20.9533 16.5543C20.5721 16.1458 20.3861 15.572 20.3861 14.8017V4.50439H16.6326V14.9108C16.6326 15.7778 16.7881 16.5761 17.096 17.284C17.404 17.9888 17.8309 18.6 18.3645 19.1021C18.8951 19.5979 19.5232 19.9909 20.2306 20.2653C20.935 20.5397 21.7034 20.677 22.5175 20.677C23.3286 20.677 24.1001 20.5397 24.8044 20.2653C25.5118 19.9909 26.14 19.6011 26.6705 19.1021C27.2042 18.6031 27.631 17.9919 27.939 17.284C28.247 16.5761 28.4025 15.7778 28.4025 14.9108V4.50439H24.6733V14.8017Z" fill="#6C6C6D"/>
<path d="M41.9624 13.3825C42.3222 13.1236 42.6454 12.8055 42.9198 12.4376C43.1973 12.0696 43.4169 11.6455 43.5785 11.1777C43.7401 10.7068 43.8224 10.1704 43.8224 9.58414C43.8224 8.89495 43.7035 8.23382 43.4687 7.6226C43.2309 7.00513 42.8802 6.4594 42.4228 6.00098C41.9685 5.54256 41.4105 5.17457 40.7641 4.90638C40.1176 4.63819 39.3828 4.50098 38.5839 4.50098H32.3452V20.5426H36.0957V14.4927H37.4831L40.3768 20.5426H44.7006L41.2794 13.7879C41.5142 13.6756 41.7429 13.5384 41.9624 13.3825ZM36.0927 8.01865H38.3918C38.9223 8.01865 39.3279 8.15898 39.6298 8.449C39.9255 8.73279 40.0688 9.10077 40.0688 9.57166C40.0688 10.0426 39.9255 10.4105 39.6298 10.6943C39.3279 10.9843 38.9223 11.1278 38.3918 11.1278H36.0927V8.01865Z" fill="#6C6C6D"/>
<path d="M50.982 9.61867C51.0307 9.34736 51.0917 9.12906 51.1649 8.97314C51.235 8.82033 51.3296 8.68 51.4424 8.55214C51.6101 8.35567 51.8266 8.19663 52.0827 8.07189C52.3358 7.95027 52.6377 7.89102 52.9731 7.89102C53.6134 7.89102 54.1165 8.04694 54.4641 8.34944C54.8209 8.66129 55.077 9.14154 55.2204 9.76836L55.2966 10.1052H59.0502L58.9739 9.59996C58.8702 8.92324 58.672 8.26524 58.3854 7.64777C58.0927 7.02096 57.6963 6.45651 57.2023 5.97626C56.7084 5.49289 56.1016 5.09996 55.4003 4.81306C54.6989 4.52303 53.8818 4.37646 52.97 4.37646C52.0827 4.37646 51.2777 4.53239 50.5734 4.838C49.8721 5.14362 49.2317 5.58956 48.6676 6.16649C48.259 6.58436 47.9389 7.03655 47.7193 7.51368C47.5028 7.98145 47.3473 8.48977 47.2558 9.02303C47.1705 9.54071 47.1186 10.0989 47.1034 10.6821C47.0881 11.2496 47.082 11.8702 47.082 12.5251C47.082 13.18 47.0881 13.8006 47.1034 14.3681C47.1186 14.9513 47.1674 15.5126 47.2558 16.0303C47.3443 16.5636 47.4998 17.0719 47.7193 17.5397C47.9389 18.0168 48.259 18.469 48.6676 18.8869C49.2317 19.4638 49.8781 19.9097 50.5856 20.2153C51.293 20.521 52.098 20.6769 52.97 20.6769C53.8055 20.6769 54.6075 20.5397 55.3545 20.2684C56.1168 19.9908 56.8273 19.5012 57.4676 18.812C58.0256 18.2101 58.4251 17.5085 58.6599 16.7289C58.8855 15.9711 59.0014 15.0106 59.0014 13.8785V11.2185H52.5432V14.5864H55.2722V14.7237C55.2722 15.076 55.2265 15.3973 55.135 15.6873C55.0496 15.9648 54.9032 16.2237 54.7142 16.4544C54.519 16.6758 54.2842 16.8474 53.9915 16.9721C53.6988 17.0968 53.3542 17.1623 52.97 17.1623C52.6285 17.1623 52.3267 17.1031 52.0705 16.9877C51.8113 16.8692 51.604 16.7195 51.4332 16.5168C51.3235 16.3921 51.2289 16.2517 51.1588 16.0989C51.0856 15.943 51.0246 15.7278 50.9759 15.4534C50.924 15.1634 50.8874 14.7829 50.8691 14.3183C50.8478 13.8474 50.8386 13.2455 50.8386 12.5282C50.8386 11.811 50.8478 11.2122 50.8691 10.7476C50.8935 10.2891 50.9301 9.91181 50.982 9.61867Z" fill="#6C6C6D"/>
<path d="M73.5368 8.01895V4.50439H62.9133V20.546H73.5368V17.0283H66.6639V14.2185H72.5153V10.7009H66.6639V8.01895H73.5368Z" fill="#6C6C6D"/>
<path d="M118.156 12.5L106.422 0.5L102.446 4.56341L110.207 12.5L102.446 20.4366L106.422 24.5L118.156 12.5Z" fill="#4CB648"/>
<path d="M86.551 4.56341L90.5241 0.5L102.257 12.5L90.5241 24.5L86.551 20.4366L94.3082 12.5L86.551 4.56341Z" fill="#4CB648"/>
<path d="M82.5718 8.63299L78.7878 12.5029L82.5718 16.3729L86.3557 12.5029L82.5718 8.63299Z" fill="#4CB648"/>
</g>
<defs>
<clipPath id="clip0_2994_523">
<rect width="120" height="24" fill="white" transform="translate(0 0.5)"/>
</clipPath>
</defs>
</svg>
