<svg width="168" height="61" viewBox="0 0 168 61" fill="none" xmlns="http://www.w3.org/2000/svg">
<path d="M160.041 26.2852L161.698 31.4459H158.155L160.155 26.2852H160.041ZM152.468 37.0994H156.497L157.44 34.4611H162.527L163.47 37.0994H167.5L161.927 22.0813H158.012L152.468 37.0994ZM147.723 37.0994H151.753V22.0813H147.723V37.0994ZM134.692 31.9388C134.692 35.5338 137.521 37.0994 140.836 37.0994C143.922 37.0994 146.98 35.9107 146.98 32.2867C146.98 29.6483 144.837 28.6916 142.836 28.0828C140.579 27.4739 138.578 27.4739 138.578 26.2852C138.578 25.3285 139.75 25.0965 140.35 25.0965C141.522 25.0965 142.722 25.4444 142.722 26.7781H146.266C146.266 23.5309 143.437 21.9653 140.579 21.9653C137.864 21.9653 134.663 23.154 134.663 26.5172C134.663 29.1555 137.035 30.1122 138.921 30.6051C141.065 31.2139 143.065 31.4459 143.065 32.7795C143.065 33.9682 141.893 34.2292 140.693 34.2292C139.15 34.2292 138.092 33.6203 138.092 31.8228H134.549L134.692 31.9388ZM127.947 26.2852L129.605 31.4459H126.061L128.061 26.2852H127.947ZM120.516 37.0994H124.432L125.375 34.4611H130.576L131.519 37.0994H135.549L129.976 22.0813H125.946L120.516 37.0994ZM107.485 37.0994H109.028V24.3717L117.659 37.0994H119.316V22.0813H117.887V34.693L109.142 22.2263H107.485V37.0994ZM104.398 37.0994H105.827V22.0813H104.398V37.0994ZM89.7371 37.0994H93.6238V31.098H98.7108V37.0994H102.512V22.0813H98.7108V27.4739H93.6238V22.2263H89.7085V37.0994H89.7371ZM88.5368 27.5029C88.5368 24.1398 85.336 22.1103 82.278 22.1103C78.0198 22.1103 75.1905 25.4734 75.1905 29.6773C75.1905 33.7653 78.0198 37.1284 82.278 37.1284C85.8218 37.1284 88.5368 34.954 88.794 31.127H85.2502C85.0216 32.9245 84.0785 33.8813 82.278 33.8813C79.906 33.8813 78.9629 31.7068 78.9629 29.6773C78.9629 27.5029 79.906 25.3575 82.278 25.3575C83.8213 25.3575 84.993 26.0823 85.1073 27.5319H88.6511H88.5368V27.5029ZM62.873 37.0994H74.9333V33.7363H66.6454V30.866H73.9902V27.8508H66.9027V25.0965H74.7047V22.2263H62.873V37.0994ZM61.6727 22.0813H49.241V25.4444H53.6135V37.0994H57.5288V25.4444H61.9014V22.0813H61.6727Z" fill="black"/>
<path d="M30.4076 27.7348C30.7505 27.9668 31.1221 27.7348 31.0077 27.242L29.1215 23.8788H28.4071L16.5755 45.1303C16.0896 45.6232 15.4037 45.6232 15.1465 45.1303L11.1169 38.2881L10.8883 37.3314V31.3299C10.8883 30.7211 10.6597 30.3732 10.2881 30.1412L0.828552 21.7334C0.228397 21.3855 0.485606 20.5447 1.31439 20.5447H18.233L22.377 22.9511C22.6056 23.183 22.6056 23.4439 22.377 23.5599L20.7194 26.6911C20.7194 26.923 20.4908 27.039 20.3764 26.9231L17.0613 25.1255L16.3468 24.8936H11.9457C11.6028 24.8936 11.4599 25.3864 11.7171 25.6184L14.6893 28.0248C15.0322 28.3727 15.1751 28.8655 15.1751 29.2135V37.1284C15.1751 37.6213 15.7753 37.7373 16.0039 37.3604L28.3213 15.7609C28.55 15.413 29.4931 15.413 29.4931 15.7609L42.1535 37.9692C42.7536 38.694 41.9248 39.4188 41.2104 39.1579L26.5209 30.4022C26.2922 30.4022 26.1779 30.0542 26.2922 29.9093L28.0641 26.8941C28.0641 26.6621 28.4071 26.6621 28.6643 26.6621L30.4362 27.8508V27.7348H30.4076Z" fill="#E10000"/>
</svg>
