<svg width="47" height="41" viewBox="0 0 47 41" fill="none" xmlns="http://www.w3.org/2000/svg">
<path d="M29.7931 12.2348C30.129 12.4668 30.4929 12.2348 30.381 11.742L28.5335 8.37884H27.8337L16.2452 29.6303C15.7693 30.1232 15.0975 30.1232 14.8456 29.6303L10.8988 22.7881L10.6749 21.8314V15.8299C10.6749 15.2211 10.4509 14.8732 10.087 14.6412L0.821802 6.23338C0.233977 5.88547 0.485902 5.0447 1.29766 5.0447H17.8687L21.9275 7.45107C22.1514 7.68301 22.1514 7.94395 21.9275 8.05992L20.304 11.1911C20.304 11.423 20.0801 11.539 19.9681 11.4231L16.7211 9.62551L16.0213 9.39357H11.7105C11.3747 9.39357 11.2347 9.88645 11.4866 10.1184L14.3977 12.5248C14.7336 12.8727 14.8736 13.3655 14.8736 13.7135V21.6284C14.8736 22.1213 15.4614 22.2373 15.6854 21.8604L27.7498 0.260933C27.9737 -0.0869775 28.8974 -0.0869775 28.8974 0.260933L41.2977 22.4692C41.8855 23.194 41.0738 23.9188 40.374 23.6579L25.9863 14.9022C25.7624 14.9022 25.6504 14.5542 25.7624 14.4093L27.4978 11.3941C27.4978 11.1621 27.8337 11.1621 28.0857 11.1621L29.8211 12.3508V12.2348H29.7931Z" fill="#E10000"/>
<path d="M43.5986 36.7094L44.2434 38.7514H42.8649L43.6431 36.7094H43.5986ZM40.6527 40.9885H42.2202L42.587 39.9446H44.5657L44.9326 40.9885H46.5L44.3323 35.0459H42.8093L40.6527 40.9885ZM38.8074 40.9885H40.3748V35.0459H38.8074V40.9885ZM33.7383 38.9465C33.7383 40.369 34.8388 40.9885 36.1283 40.9885C37.3289 40.9885 38.5184 40.5182 38.5184 39.0841C38.5184 38.0402 37.6846 37.6616 36.9065 37.4207C36.0283 37.1797 35.2501 37.1797 35.2501 36.7094C35.2501 36.3308 35.7059 36.239 35.9393 36.239C36.3951 36.239 36.862 36.3767 36.862 36.9044H38.2405C38.2405 35.6195 37.1399 35 36.0283 35C34.9722 35 33.7272 35.4704 33.7272 36.8011C33.7272 37.8451 34.6498 38.2237 35.3835 38.4187C36.2173 38.6597 36.9954 38.7514 36.9954 39.2792C36.9954 39.7495 36.5396 39.8528 36.0727 39.8528C35.4725 39.8528 35.0611 39.6119 35.0611 38.9006H33.6827L33.7383 38.9465ZM31.1148 36.7094L31.7595 38.7514H30.3811L31.1593 36.7094H31.1148ZM28.2245 40.9885H29.7475L30.1143 39.9446H32.1375L32.5044 40.9885H34.0718L31.9041 35.0459H30.3366L28.2245 40.9885ZM23.1554 40.9885H23.7557V35.9522L27.1129 40.9885H27.7576V35.0459H27.2018V40.0363L23.8001 35.1032H23.1554V40.9885ZM21.9548 40.9885H22.5106V35.0459H21.9548V40.9885ZM16.2521 40.9885H17.7639V38.6138H19.7426V40.9885H21.2211V35.0459H19.7426V37.1797H17.7639V35.1032H16.2409V40.9885H16.2521ZM15.7852 37.1912C15.7852 35.8604 14.5401 35.0574 13.3507 35.0574C11.6943 35.0574 10.5938 36.3881 10.5938 38.0516C10.5938 39.6692 11.6943 41 13.3507 41C14.7291 41 15.7852 40.1396 15.8852 38.6252H14.5068C14.4178 39.3365 14.051 39.7151 13.3507 39.7151C12.428 39.7151 12.0611 38.8547 12.0611 38.0516C12.0611 37.1912 12.428 36.3423 13.3507 36.3423C13.9509 36.3423 14.4067 36.6291 14.4512 37.2027H15.8296H15.7852V37.1912ZM5.80256 40.9885H10.4937V39.6577H7.26994V38.522H10.1269V37.3289H7.36999V36.239H10.4048V35.1032H5.80256V40.9885ZM5.33567 35.0459H0.5V36.3767H2.20082V40.9885H3.72378V36.3767H5.4246V35.0459H5.33567Z" fill="black"/>
</svg>
