<svg width="168" height="31" viewBox="0 0 168 31" fill="none" xmlns="http://www.w3.org/2000/svg">
<path d="M160.041 11.2852L161.698 16.4459H158.155L160.155 11.2852H160.041ZM152.468 22.0994H156.497L157.44 19.4611H162.527L163.47 22.0994H167.5L161.927 7.0813H158.012L152.468 22.0994ZM147.723 22.0994H151.753V7.0813H147.723V22.0994ZM134.692 16.9388C134.692 20.5338 137.521 22.0994 140.836 22.0994C143.922 22.0994 146.98 20.9107 146.98 17.2867C146.98 14.6483 144.837 13.6916 142.836 13.0828C140.579 12.4739 138.578 12.4739 138.578 11.2852C138.578 10.3285 139.75 10.0965 140.35 10.0965C141.522 10.0965 142.722 10.4444 142.722 11.7781H146.266C146.266 8.53093 143.437 6.96533 140.579 6.96533C137.864 6.96533 134.663 8.15402 134.663 11.5172C134.663 14.1555 137.035 15.1122 138.921 15.6051C141.065 16.2139 143.065 16.4459 143.065 17.7795C143.065 18.9682 141.893 19.2292 140.693 19.2292C139.15 19.2292 138.092 18.6203 138.092 16.8228H134.549L134.692 16.9388ZM127.947 11.2852L129.605 16.4459H126.061L128.061 11.2852H127.947ZM120.516 22.0994H124.432L125.375 19.4611H130.576L131.519 22.0994H135.549L129.976 7.0813H125.946L120.516 22.0994ZM107.485 22.0994H109.028V9.37171L117.659 22.0994H119.316V7.0813H117.887V19.693L109.142 7.22626H107.485V22.0994ZM104.398 22.0994H105.827V7.0813H104.398V22.0994ZM89.7371 22.0994H93.6238V16.098H98.7108V22.0994H102.512V7.0813H98.7108V12.4739H93.6238V7.22626H89.7085V22.0994H89.7371ZM88.5368 12.5029C88.5368 9.13977 85.336 7.11029 82.278 7.11029C78.0198 7.11029 75.1905 10.4734 75.1905 14.6773C75.1905 18.7653 78.0198 22.1284 82.278 22.1284C85.8218 22.1284 88.5368 19.954 88.794 16.127H85.2502C85.0216 17.9245 84.0785 18.8813 82.278 18.8813C79.906 18.8813 78.9629 16.7068 78.9629 14.6773C78.9629 12.5029 79.906 10.3575 82.278 10.3575C83.8213 10.3575 84.993 11.0823 85.1073 12.5319H88.6511H88.5368V12.5029ZM62.873 22.0994H74.9333V18.7363H66.6454V15.866H73.9902V12.8508H66.9027V10.0965H74.7047V7.22626H62.873V22.0994ZM61.6727 7.0813H49.241V10.4444H53.6135V22.0994H57.5288V10.4444H61.9014V7.0813H61.6727Z" fill="black"/>
<path d="M30.4076 12.7348C30.7505 12.9668 31.1221 12.7348 31.0077 12.242L29.1215 8.87884H28.4071L16.5755 30.1303C16.0896 30.6232 15.4037 30.6232 15.1465 30.1303L11.1169 23.2881L10.8883 22.3314V16.3299C10.8883 15.7211 10.6597 15.3732 10.2881 15.1412L0.828552 6.73338C0.228397 6.38547 0.485606 5.5447 1.31439 5.5447H18.233L22.377 7.95107C22.6056 8.18301 22.6056 8.44395 22.377 8.55992L20.7194 11.6911C20.7194 11.923 20.4908 12.039 20.3764 11.9231L17.0613 10.1255L16.3468 9.89357H11.9457C11.6028 9.89357 11.4599 10.3864 11.7171 10.6184L14.6893 13.0248C15.0322 13.3727 15.1751 13.8655 15.1751 14.2135V22.1284C15.1751 22.6213 15.7753 22.7373 16.0039 22.3604L28.3213 0.760933C28.55 0.413022 29.4931 0.413022 29.4931 0.760933L42.1535 22.9692C42.7536 23.694 41.9248 24.4188 41.2104 24.1579L26.5209 15.4022C26.2922 15.4022 26.1779 15.0542 26.2922 14.9093L28.0641 11.8941C28.0641 11.6621 28.4071 11.6621 28.6643 11.6621L30.4362 12.8508V12.7348H30.4076Z" fill="#E10000"/>
</svg>
