<svg width="72" height="20" viewBox="0 0 72 20" fill="none" xmlns="http://www.w3.org/2000/svg">
<path d="M13.5583 8.92749C14.8914 7.85499 15.6298 6.14099 15.3926 4.35349C15.0618 1.84096 12.8567 0 10.3241 0H1.40327C0.628132 0 0 0.628132 0 1.40327V18.2426C0 19.0177 0.628132 19.6458 1.40327 19.6458H11.1293C14.1731 19.6458 16.7391 17.2603 16.8393 14.2198C16.9161 11.8777 15.5463 9.84296 13.5616 8.93083L13.5583 8.92749ZM2.80655 2.98363C2.80655 2.88673 2.88673 2.80655 2.98363 2.80655H10.3608C11.45 2.80655 12.419 3.57167 12.5994 4.64417C12.7698 5.65987 12.2285 6.63548 11.3164 7.03976L2.80655 10.8219V2.98363ZM11.156 16.8393H2.98029C2.88339 16.8393 2.80321 16.7591 2.80321 16.6622V14.006C2.80321 13.9358 2.8433 13.8724 2.90678 13.8456L8.80053 11.2262H11.2228C12.8065 11.2262 14.0862 12.5459 14.0261 14.1397C13.9693 15.6599 12.6729 16.8393 11.1527 16.8393H11.156Z" fill="#101010"/>
<path d="M33.2576 13.4046L30.0601 14.8246C30.0033 14.8514 29.9532 14.8915 29.9165 14.9449C28.9642 16.3014 27.3872 17.1901 25.6064 17.1901C24.1563 17.1901 22.8433 16.6021 21.8877 15.6499C21.8009 15.563 21.8276 15.4127 21.9378 15.3626L30.8386 11.4067L33.2242 10.3475C33.3812 10.2774 33.4647 10.1036 33.4213 9.93656C32.5092 6.36155 29.2081 3.73542 25.3291 3.86573C21.156 4.00606 17.7414 7.37391 17.5443 11.5436C17.3271 16.1678 21.0257 20 25.6031 20C29.4754 20 32.7197 17.2536 33.4948 13.6085C33.5249 13.4681 33.3845 13.3512 33.2509 13.408L33.2576 13.4046ZM20.3475 11.9279C20.3475 9.02777 22.7096 6.66559 25.6097 6.66559C27.2536 6.66559 28.7203 7.42069 29.6859 8.60679C29.7594 8.697 29.7294 8.83399 29.6224 8.88076L20.4477 12.9569C20.3809 12.6228 20.3475 12.282 20.3475 11.9279Z" fill="#101010"/>
<path d="M41.1827 3.85889C38.012 3.90232 35.3892 6.25113 34.9148 9.30158C34.8947 9.43857 35.0317 9.54883 35.1587 9.49203L38.3628 8.06871C38.4129 8.04866 38.453 8.01525 38.4864 7.97182C39.1547 7.17663 40.1536 6.66878 41.2696 6.66878C42.596 6.66878 43.7621 7.38378 44.3935 8.4496L40.2038 10.3106V10.3173L36.6421 11.901C35.1119 12.6628 34.1897 14.3133 34.4036 16.0607C34.6575 18.1255 36.465 19.6491 38.5466 19.6491H46.3013C47.0765 19.6491 47.7046 19.0209 47.7046 18.2458V10.4075C47.7046 6.79908 44.7845 3.81211 41.176 3.86223L41.1827 3.85889ZM44.9047 16.6654C44.9047 16.7623 44.8245 16.8425 44.7277 16.8425H38.5065C37.9118 16.8425 37.3672 16.4516 37.2235 15.8736C37.0698 15.2521 37.3905 14.6374 37.9452 14.3901L44.6541 11.4065C44.7711 11.3564 44.9014 11.4399 44.9014 11.5669V16.6654H44.9047Z" fill="#101010"/>
<path d="M65.5229 3.86568C64.7678 3.89909 64.0294 4.08954 63.3411 4.39692L60.2473 5.77012C59.0612 4.4604 57.2837 3.69194 55.3425 3.89241C54.7177 3.95589 54.1096 4.13297 53.5349 4.39024L49.5323 6.16772C49.2783 6.28132 49.1146 6.5319 49.1146 6.80921V19.4721C49.1146 19.569 49.1948 19.6492 49.2917 19.6492H51.7474C51.8443 19.6492 51.9245 19.569 51.9245 19.4721V8.28933C51.9245 8.21917 51.9646 8.15569 52.0281 8.12896L54.721 6.93284C54.9482 6.8326 55.1855 6.75241 55.4294 6.71232C57.3071 6.38823 58.9409 7.83494 58.9409 9.65251V19.4721C58.9409 19.569 59.0211 19.6492 59.118 19.6492H61.5737C61.6706 19.6492 61.7508 19.569 61.7508 19.4721V8.28933C61.7508 8.21917 61.7909 8.15569 61.8543 8.12896L64.5473 6.93284C64.7745 6.8326 65.0117 6.75241 65.2556 6.71232C67.1333 6.38823 68.7671 7.83494 68.7671 9.65251V19.4721C68.7671 19.569 68.8473 19.6492 68.9442 19.6492H71.3999C71.4968 19.6492 71.577 19.569 71.577 19.4721V9.65251C71.577 6.37487 68.8406 3.72535 65.5329 3.86568H65.5229Z" fill="#101010"/>
</svg>
